<svg xmlns="http://www.w3.org/2000/svg" xmlns:xlink="http://www.w3.org/1999/xlink" width="1200" height="640" viewBox="0 0 1200 640">
  <defs>
    <style>
      .cls-1 {
        fill: #fff;
      }

      .cls-2 {
        clip-path: url(#clip-path);
      }

      .cls-3 {
        fill: #3f3d56;
      }

      .cls-4, .cls-6 {
        fill: #fbbebe;
      }

      .cls-5 {
        fill: #3c354c;
      }

      .cls-10, .cls-6 {
        opacity: 0.1;
      }

      .cls-7 {
        fill: #f1b0b0;
      }

      .cls-8 {
        fill: #f2f2f2;
      }

      .cls-9 {
        fill: #ff7675;
      }

      .cls-11 {
        fill: #ebbebe;
      }

      .cls-12 {
        fill: #43426d;
      }

      .cls-13 {
        fill: #43425d;
      }

      .cls-14 {
        fill: none;
        stroke: #3f3d56;
        stroke-miterlimit: 10;
        stroke-width: 5.937px;
      }

      .cls-15 {
        fill: #57b894;
      }

      .cls-16 {
        fill: #656380;
      }

      .cls-17 {
        opacity: 0.2;
      }
    </style>
    <clipPath id="clip-path">
      <rect id="Splash_Area" data-name="Splash Area" class="cls-1" width="1200" height="640"/>
    </clipPath>
  </defs>
  <g id="Splash_Illustration" data-name="Splash Illustration" class="cls-2">
    <g id="travelers" transform="translate(353.377 0)">
      <ellipse id="Ellipse_40" data-name="Ellipse 40" class="cls-3" cx="36.835" cy="28.731" rx="36.835" ry="28.731" transform="translate(157.699 6.884)"/>
      <circle id="Ellipse_41" data-name="Ellipse 41" class="cls-3" cx="53.043" cy="53.043" r="53.043" transform="translate(215.16 79.811)"/>
      <circle id="Ellipse_42" data-name="Ellipse 42" class="cls-3" cx="13.256" cy="13.256" r="13.256" transform="translate(423.275 589.983)"/>
      <circle id="Ellipse_43" data-name="Ellipse 43" class="cls-3" cx="13.256" cy="13.256" r="13.256" transform="translate(354.033 589.983)"/>
      <rect id="Rectangle_755" data-name="Rectangle 755" class="cls-3" width="5.895" height="162.814" transform="translate(382.021 283.516)"/>
      <rect id="Rectangle_756" data-name="Rectangle 756" class="cls-3" width="5.895" height="162.814" transform="translate(413.695 283.516)"/>
      <path id="Path_347" data-name="Path 347" class="cls-3" d="M1107.924,608.9l-1.474-4.419s16.208-19.151,39.043-3.714l-1.477,6.638h-5.895s-9.57-8.03-25.778,1.141Z" transform="translate(-724.465 -320.962)"/>
      <rect id="Rectangle_757" data-name="Rectangle 757" class="cls-4" width="53.043" height="67.775" transform="translate(231.368 260.308)"/>
      <rect id="Rectangle_758" data-name="Rectangle 758" class="cls-4" width="16.208" height="32.416" transform="translate(305.038 241.148)"/>
      <path id="Path_348" data-name="Path 348" class="cls-5" d="M872.578,1099.464l-6.628,19.893s-2.952,14.732,6.628,15.466,25.064-2.21,25.064-2.21,2.209-6.628,0-12.523-8.837-22.1-8.837-22.1Z" transform="translate(-634.21 -509.481)"/>
      <path id="Path_349" data-name="Path 349" class="cls-5" d="M953.716,1101.521s-10.314,25.789-2.209,30.207,19.16.734,28,4.419,33.15-5.153,33.15-5.153,2.952-8.1-13.255-10.314c0,0-17.639-13.266-17.639-16.208s-10.312-2.952-10.312-2.952Z" transform="translate(-665.258 -510.805)"/>
      <path id="Path_350" data-name="Path 350" class="cls-3" d="M903.717,630.655s-60.4,12.522-67.766,8.837-14.732,50.128-14.732,50.128-2.952,32.416,7.361,75.879,0,64.832,0,64.832,1.477,41.253,12.533,60.414,11.046,36.835,11.046,36.835,21.35,2.209,22.1-2.953c0,0-8.847-20.626-7.371-39.777s-4.418-56-4.418-56,9.58-46.414,8.1-64.052,5.162-55.252,8.837-48.624,13.266,39.044,13.266,45.682,3.714,50.824,5.895,53.776,1.467,11.789.734,16.208-.734,37.569,2.943,55.253.742,37.568,1.477,40.52,22.1.733,22.836-4.427c0,0,2.951-31.674,4.427-36.093s2.173-60.488,2.173-60.488,1.466-43.463,2.943-47.882,3.714-99.458-5.895-110.467-5.895-39.044-5.895-39.044Z" transform="translate(-617.467 -333.874)"/>
      <path id="Path_351" data-name="Path 351" class="cls-4" d="M868.686,413.8c-2.729,5.143-5.477,10.332-7.186,15.911s-2.3,11.622-.7,17.229a42.737,42.737,0,0,0,4.753,9.933,34.085,34.085,0,0,0,6.006,8.02c5.57,5.087,13.665,6.108,21.184,6.906a10.73,10.73,0,0,0,3.889-.065,7.361,7.361,0,0,0,2.786-1.522c3.3-2.785,4.789-7.036,6-11.14a183.9,183.9,0,0,0,6.145-29.835,13.8,13.8,0,0,0,0-4.827c-.65-2.785-2.878-4.948-4.493-7.343a18.722,18.722,0,0,1-3.193-9.655c-.066-1.68,0-3.537-1.058-4.818a6.494,6.494,0,0,0-2.5-1.541c-4.391-1.857-8.773-3.713-13.172-5.5-2.655-1.1-7.427-4.01-10.212-1.857-2.386,1.857-1.235,6.164-2.256,8.745C873.114,406.368,870.654,410.09,868.686,413.8Z" transform="translate(-632.092 -245.359)"/>
      <path id="Path_352" data-name="Path 352" class="cls-6" d="M868.686,413.8c-2.729,5.143-5.477,10.332-7.186,15.911s-2.3,11.622-.7,17.229a42.737,42.737,0,0,0,4.753,9.933,34.085,34.085,0,0,0,6.006,8.02c5.57,5.087,13.665,6.108,21.184,6.906a10.73,10.73,0,0,0,3.889-.065,7.361,7.361,0,0,0,2.786-1.522c3.3-2.785,4.789-7.036,6-11.14a183.9,183.9,0,0,0,6.145-29.835,13.8,13.8,0,0,0,0-4.827c-.65-2.785-2.878-4.948-4.493-7.343a18.722,18.722,0,0,1-3.193-9.655c-.066-1.68,0-3.537-1.058-4.818a6.494,6.494,0,0,0-2.5-1.541c-4.391-1.857-8.773-3.713-13.172-5.5-2.655-1.1-7.427-4.01-10.212-1.857-2.386,1.857-1.235,6.164-2.256,8.745C873.114,406.368,870.654,410.09,868.686,413.8Z" transform="translate(-632.092 -245.359)"/>
      <circle id="Ellipse_44" data-name="Ellipse 44" class="cls-7" cx="25.788" cy="25.788" r="25.788" transform="translate(239.834 118.493)"/>
      <path id="Path_353" data-name="Path 353" class="cls-8" d="M903.777,488.2c-4.882,1.755-9.922,3.268-15.112,3.454a50.056,50.056,0,0,1-11.557-1.235,146.757,146.757,0,0,1-23-6.563,24.665,24.665,0,0,0-2.163,10.267c-.4,10.666,1.726,21.248,2.544,31.9,1.029,13.534,0,27.366,3.48,40.474a11.138,11.138,0,0,1,2.488-6.071,13.773,13.773,0,0,1,4.168-3.064,33.233,33.233,0,0,1,22.818-2.841c4.465,1.059,9.207,3.036,13.441,1.263,2.524-1.068,4.354-3.314,5.755-5.672a46.58,46.58,0,0,0,5.031-13.637c2.786-12.291,3.157-25,3.491-37.605.094-3.369,1.541-13.385-1.253-15.855-1.958-1.717-2.535.734-3.946,2.014A18.031,18.031,0,0,1,903.777,488.2Z" transform="translate(-629.105 -278.882)"/>
      <path id="Path_354" data-name="Path 354" class="cls-9" d="M851.69,420.369c-1.717-1.346-4.261-.928-6.155.214s-3.425,2.72-5.347,3.759c-5.328,2.887-12.485.771-17.545,4.131-4.753,3.165-5.569,9.682-5.941,15.382-.929,14.481-1.727,29.065-5.208,43.157-.928,3.713-2.043,7.519-1.689,11.344a30.07,30.07,0,0,0,1.541,6.4l4.566,14.268c2.117,6.628,4.262,13.358,4.484,20.311s-1.41,13.562-3.035,20.2a236.956,236.956,0,0,0-6.248,39.833c-.288,4.447-.408,9.088,1.393,13.163,1.857,4.261,5.626,7.426,9.6,9.83s8.29,4.262,12.179,6.814c7.807,5.133,14.073,13.219,23.208,15.326a31.557,31.557,0,0,0,12.782-.26s-2.385-108.35-9.023-123.825-12.523-82.507-12.523-84.716S851.69,420.369,851.69,420.369Z" transform="translate(-613.313 -255.322)"/>
      <path id="Path_355" data-name="Path 355" class="cls-9" d="M928.972,426.542s34.859,0,40.02,18.417-14.733,48.625-14.733,48.625,8.1,59.67,11.781,65.565,2.218,17.637,2.218,17.637a48.733,48.733,0,0,1,1.467,25.064c-2.943,13.256-14,36.835-14,36.835s-14.732,0-18.417,8.837-4.418-38.31-4.418-38.31-13.256-86.193-12.524-91.344,4.419-47.891,5.895-59.681S930.951,430.961,928.972,426.542Z" transform="translate(-654.745 -257.95)"/>
      <path id="Path_356" data-name="Path 356" class="cls-9" d="M973.26,445.394s16.951,5.152,16.951,11.047,5.189,37.568,5.189,47.881-2.209,11.79,0,15.475-23.57,2.21-23.57,2.21l-4.687-41.987Z" transform="translate(-672.279 -265.012)"/>
      <path id="Path_357" data-name="Path 357" class="cls-4" d="M814.956,528.237s33.159,2.21,39.053-2.218,30.941,5.895,33.15,11.79-35.368,6.628-41.254,6.628-33.892,8.847-33.892,8.847Z" transform="translate(-614.166 -294.813)"/>
      <path id="Path_358" data-name="Path 358" class="cls-3" d="M701.742,1077s-15.456,38.988-7.427,43.63,92.7,1.336,92.7,1.336,14.1-8.723-2.014-14.777c0,0-13.442-.669-22.168-6.043s-18.817-15.447-18.817-15.447-.668-14.78-6.043-11.419a13.8,13.8,0,0,0-6.043,9.4Z" transform="translate(-569.208 -500.413)"/>
      <path id="Path_359" data-name="Path 359" class="cls-10" d="M701.742,1077s-15.456,38.988-7.427,43.63,92.7,1.336,92.7,1.336,14.1-8.723-2.014-14.777c0,0-13.442-.669-22.168-6.043s-18.817-15.447-18.817-15.447-.668-14.78-6.043-11.419a13.8,13.8,0,0,0-6.043,9.4Z" transform="translate(-569.208 -500.413)"/>
      <path id="Path_360" data-name="Path 360" class="cls-3" d="M663.058,1095.882s-16.941,42.7-8.1,47.882,101.667,1.477,101.667,1.477,15.475-9.572-2.209-16.208c0,0-14.732-.734-24.312-6.629s-20.627-16.969-20.627-16.969-.734-16.208-6.628-12.523a15.112,15.112,0,0,0-6.628,10.314Z" transform="translate(-554.373 -507.375)"/>
      <path id="Path_361" data-name="Path 361" class="cls-5" d="M772.275,653.483l-10.313,92.83s-3.713,44.205-14.732,53.776c0,0,0,14-3.714,18.417l-5.161,58.2s7.371,21.351,6.638,25.064,2.943,15.465,2.21,16.941-35.368,0-35.368,0l7.37-118.608,22.836-165.013Z" transform="translate(-576.638 -336.076)"/>
      <path id="Path_362" data-name="Path 362" class="cls-10" d="M772.275,653.483l-10.313,92.83s-3.713,44.205-14.732,53.776c0,0,0,14-3.714,18.417l-5.161,58.2s7.371,21.351,6.638,25.064,2.943,15.465,2.21,16.941-35.368,0-35.368,0l7.37-118.608,22.836-165.013Z" transform="translate(-576.638 -336.076)"/>
      <path id="Path_363" data-name="Path 363" class="cls-5" d="M730.955,648.285s-8.1,75.879-11.79,92.087a209.226,209.226,0,0,0-4.419,32.416s-.733,23.578-7.37,30.206a19.9,19.9,0,0,0-5.886,14.714s-6.637,74.4-2.951,83.249,7.37,16.208,3.713,22.093-44.205,5.895-44.205,1.476,0-8.1-2.209-10.313,0-16.208,0-16.208S647,832.44,655.1,813.289s11.789-71.479,11.789-71.479S661,682.14,653.629,672.56,655.1,629.1,655.1,629.1Z" transform="translate(-553.735 -333.829)"/>
      <path id="Path_364" data-name="Path 364" class="cls-11" d="M745.871,270.3c.854,1.949,2.906,3.035,4.771,4.066,10.815,5.96,19.866,14.6,28.777,23.142a33.819,33.819,0,0,1,1.346-22.864c1.059-2.46,2.46-5.115,1.7-7.686-.566-1.857-2.172-3.268-3.713-4.474a115.716,115.716,0,0,0-11.391-7.77c-2.785-1.652-8.429-6.043-11.594-5.57-.168,4.279-.251,8.1-2.126,12.068C753.177,262.193,746.2,271.04,745.871,270.3Z" transform="translate(-589.388 -191.48)"/>
      <path id="Path_387" data-name="Path 387" class="cls-4" d="M30.207,0A30.207,30.207,0,1,1,0,30.207,30.207,30.207,0,0,1,30.207,0Z" transform="translate(163.955 27.872)"/>
      <path id="Path_365" data-name="Path 365" class="cls-3" d="M744.113,331.892s5.152-25.788-9.58-34.625-31.674-19.151-31.674-19.151-5.161-.743-7.37,10.313c0,0-41.987,8.1-46.414,47.882s2.951,97.981,2.951,97.981-6.628,50.833-14.732,78.088c0,0-6.637,5.895,22.836-2.943S741.16,534.5,741.16,534.5s5.161-5.161,5.161-8.847,5.895-25.064,5.895-25.064,5.152-90.611,7.361-100.925S750.74,333.368,744.113,331.892Z" transform="translate(-548.474 -202.344)"/>
      <path id="Path_366" data-name="Path 366" class="cls-12" d="M707.647,388.509s40.511-23.578,32.406-53.785-25.778-39.778-25.778-39.778-28.731-9.58-53.043,21.351l1.476,14s26.522-53.776,55.253-19.893S707.647,388.509,707.647,388.509Z" transform="translate(-557.682 -208.127)"/>
      <path id="Path_367" data-name="Path 367" class="cls-12" d="M622.277,332.088v120.8l-7.529,41.207L611.23,513.3H585.48l-36.093-13.266V410.919s30.2-59.68,39.778-70.726S622.277,332.088,622.277,332.088Z" transform="translate(-515.783 -222.433)"/>
      <path id="Path_368" data-name="Path 368" class="cls-10" d="M119.063,434.409l-3.509,19.207H89.766L53.674,440.36Z" transform="translate(-20.107 -162.739)"/>
      <path id="Path_369" data-name="Path 369" class="cls-13" d="M156.153,346.927l63.356-77.355-55.995,80.307-5.895,1.467Z" transform="translate(-58.497 -100.989)"/>
      <path id="Path_370" data-name="Path 370" class="cls-3" d="M774.939,218.16c1.717-1.16,3.871-1.374,5.932-1.578s4.215-.483,5.857-1.745c2.85-2.191,3.064-6.424,5.152-9.348,3.018-4.242,9.042-4.753,14.249-4.548,3.185.13,6.61.325,9.284-1.393s3.991-5.105,4.92-8.234c1.1-3.713,1.811-8.243-.928-10.991-1.857-1.912-4.864-2.293-6.962-3.973s-3.073-4.567-4.252-7.083a19.181,19.181,0,0,0-6.173-7.733c-3.955-2.785-9-3.361-13.823-3.314s-9.654.687-14.435.093c-3.917-.483-7.825-1.782-11.725-1.207-4.975.733-9.088,4.493-11.548,8.884s-3.5,9.4-4.521,14.323l-2.784,13.4c-.854,4.159-1.718,8.42-1.058,12.606,1.373,8.689,9.06,15.6,9.588,24.368a14.956,14.956,0,0,1,9.135-10.852,2.887,2.887,0,0,1,1.857-.232c.761.251,1.206,1.012,1.69,1.652,1.262,1.68,5.226,4.224,7.426,3.036C773.918,223.219,772.414,219.877,774.939,218.16Z" transform="translate(-587.897 -156.962)"/>
      <path id="Path_371" data-name="Path 371" class="cls-5" d="M1088.512,854.05s-19.894.734-22.835,23.57,0,128.92,0,128.92,22.835,16.942,50.833,14.733,72.928-10.312,72.928-10.312V886.568c0-18.566-15.485-33.707-34.031-32.639a12.243,12.243,0,0,0-1.329.1Z" transform="translate(-708.701 -418.033)"/>
      <circle id="Ellipse_46" data-name="Ellipse 46" class="cls-3" cx="13.256" cy="13.256" r="13.256" transform="translate(395.287 593.668)"/>
      <circle id="Ellipse_47" data-name="Ellipse 47" class="cls-3" cx="13.256" cy="13.256" r="13.256" transform="translate(467.48 587.773)"/>
      <path id="Path_372" data-name="Path 372" class="cls-4" d="M672.69,470.3s-5.161,32.407,16.2,29.464c0,0,11.056-1.476,12.532,0s55.986-8.1,63.357-16.208c0,0,8.837-2.943,13.256,1.476s48.624,8.838,35.377-4.428-33.883-16.208-33.883-16.208l-28,1.466s-14.732,4.429-23.569,0-33.911-2.9-33.911-2.9Z" transform="translate(-561.769 -271.498)"/>
      <path id="Path_373" data-name="Path 373" class="cls-3" d="M701.448,311.1s-33.15,3.713-33.15,51.566v61.138s18.417-8.1,22.1-7.37,18.417-9.58,18.417-9.58,16.942-39.768,15.465-50.815S723.551,312.571,701.448,311.1Z" transform="translate(-560.328 -214.706)"/>
      <path id="Path_374" data-name="Path 374" class="cls-3" d="M448.455,343.79l-33.149,23.579,20.626,2.209,28.731-24.312Z" transform="translate(-155.578 -128.792)"/>
      <path id="Path_375" data-name="Path 375" class="cls-4" d="M979.082,543.6s8.1,25.064-2.943,32.416-29.474-25.788-29.474-25.788-19.893-23.569-6.627-28.731,18.677,17.313,18.677,17.313l17.4,15.1Z" transform="translate(-660.417 -293.231)"/>
      <ellipse id="Ellipse_48" data-name="Ellipse 48" class="cls-3" cx="29.464" cy="18.789" rx="29.464" ry="18.789" transform="translate(238.739 106.332)"/>
      <circle id="Ellipse_49" data-name="Ellipse 49" class="cls-3" cx="21.36" cy="21.36" r="21.36" transform="translate(251.995 58.46)"/>
      <ellipse id="Ellipse_50" data-name="Ellipse 50" class="cls-3" cx="28.359" cy="14.732" rx="28.359" ry="14.732" transform="translate(165.803 24.568)"/>
      <ellipse id="Ellipse_51" data-name="Ellipse 51" class="cls-3" cx="9.942" cy="24.683" rx="9.942" ry="24.683" transform="translate(157.699 17.188)"/>
      <path id="Path_376" data-name="Path 376" class="cls-14" d="M519.959,1088.164c2.785-5.114-.371-11.38-3.973-15.948s-8-9.282-7.909-15.121c.139-8.355,9-13.286,16.087-17.713a78.388,78.388,0,0,0,14.445-11.612,20.942,20.942,0,0,0,4.437-5.941c1.467-3.268,1.43-6.981,1.337-10.564q-.464-17.879-1.773-35.72" transform="translate(-500.307 -463.613)"/>
      <path id="Path_377" data-name="Path 377" class="cls-15" d="M569.272,967.057a13,13,0,0,0-6.5-10.676l-2.916,5.774.093-6.981a13,13,0,1,0,9.321,11.883Z" transform="translate(-513.5 -455.783)"/>
      <path id="Path_378" data-name="Path 378" class="cls-15" d="M533.022,1104.15a13,13,0,1,1,.631-10.49l-8.14,6.618,8.958-2.079A12.906,12.906,0,0,1,533.022,1104.15Z" transform="translate(-500.457 -504.689)"/>
      <path id="Path_379" data-name="Path 379" class="cls-15" d="M529.167,1059.454a13,13,0,0,1-13.618-12.411,12.821,12.821,0,0,1,1.124-5.931,13.049,13.049,0,0,1,8.354-7.224l-.065,5.374,2.943-5.837h0a13,13,0,0,1,13.618,12.41,12.842,12.842,0,0,1-.557,4.447A13,13,0,0,1,529.167,1059.454Z" transform="translate(-503.101 -485.29)"/>
      <path id="Path_380" data-name="Path 380" class="cls-15" d="M579.894,1025.839a13,13,0,1,1,5.765-24.385l-2.3,6.312,4.734-4.548a13,13,0,0,1-8.2,22.622Z" transform="translate(-522.164 -472.72)"/>
      <path id="Path_381" data-name="Path 381" class="cls-10" d="M567.553,974.8c-3,.335-5.931,1.273-8.948,1.458s-6.331-.538-8.234-2.887a39.458,39.458,0,0,1-2.414-4.233,9.334,9.334,0,0,0-3.277-3.091A13,13,0,1,0,569.03,974.7C568.538,974.715,568.045,974.752,567.553,974.8Z" transform="translate(-513.536 -460.053)"/>
      <path id="Path_382" data-name="Path 382" class="cls-10" d="M579.807,1030.284a13.052,13.052,0,0,1-12.393-18.566,9.542,9.542,0,0,1,2.627,2.627c.929,1.4,1.485,3.016,2.581,4.307,2.024,2.386,5.5,3.165,8.633,3.018s6.182-1.03,9.282-1.318c.437,0,.882-.075,1.318-.083A12.994,12.994,0,0,1,579.807,1030.284Z" transform="translate(-522.076 -477.163)"/>
      <path id="Path_383" data-name="Path 383" class="cls-10" d="M529.167,1064.067a13,13,0,0,1-13.618-12.41,12.834,12.834,0,0,1,1.124-5.933,10.526,10.526,0,0,1,2.784,2.646c1.013,1.43,1.643,3.073,2.784,4.392,2.2,2.45,5.895,3.313,9.228,3.23s6.331-.862,9.533-1.105A13,13,0,0,1,529.167,1064.067Z" transform="translate(-503.101 -489.902)"/>
      <path id="Path_384" data-name="Path 384" class="cls-10" d="M532.819,1109.136a13.008,13.008,0,0,1-23.746-10.629,13.241,13.241,0,0,1,2.859,2.543c1.235,1.513,2.051,3.223,3.481,4.642,2.664,2.618,6.962,3.714,10.8,3.8a57.418,57.418,0,0,0,6.609-.353Z" transform="translate(-500.254 -509.675)"/>
      <path id="Path_385" data-name="Path 385" class="cls-16" d="M495.654,1142.884s10.286-.315,13.386-2.524,15.781-4.846,16.588-1.3,15.447,17.639,3.844,17.694-26.977-1.811-30.068-3.714S495.654,1142.884,495.654,1142.884Z" transform="translate(-495.654 -524.217)"/>
      <path id="Path_386" data-name="Path 386" class="cls-17" d="M529.676,1158.826c-11.613.094-26.977-1.809-30.067-3.714-2.358-1.43-3.3-6.581-3.611-8.958h-.343s.65,8.29,3.713,10.212,18.454,3.787,30.067,3.714c3.351,0,4.5-1.216,4.447-2.989C533.444,1158.138,532.173,1158.806,529.676,1158.826Z" transform="translate(-495.654 -527.525)"/>
    </g>
  </g>
</svg>
