<svg xmlns="http://www.w3.org/2000/svg" xmlns:xlink="http://www.w3.org/1999/xlink" width="132" height="132" viewBox="0 0 132 132">
  <defs>
    <filter id="bg" x="0" y="0" width="132" height="132" filterUnits="userSpaceOnUse">
      <feOffset dy="12" input="SourceAlpha"/>
      <feGaussianBlur stdDeviation="8" result="blur"/>
      <feFlood flood-color="#455b63" flood-opacity="0.102"/>
      <feComposite operator="in" in2="blur"/>
      <feComposite in="SourceGraphic"/>
    </filter>
  </defs>
  <g id="Facebook" transform="translate(24.024 12)">
    <g transform="matrix(1, 0, 0, 1, -24.02, -12)" filter="url(#bg)">
      <rect id="bg-2" data-name="bg" width="84" height="84" rx="12" transform="translate(24 12)" fill="#5773ff"/>
    </g>
    <path id="icon" d="M982.893,370.971h-7.121v25.506H965.149V370.971H960.13v-8.988h5.019v-5.837a12.633,12.633,0,0,1,.817-4.611,8.959,8.959,0,0,1,3.21-4.261,11.206,11.206,0,0,1,6.653-1.868l7.879.058v8.755h-5.72a2.262,2.262,0,0,0-1.459.467,2.456,2.456,0,0,0-.759,1.984v5.311h8.055Z" transform="translate(-930.495 -328.527)" fill="#fff"/>
  </g>
</svg>
