<svg xmlns="http://www.w3.org/2000/svg" xmlns:xlink="http://www.w3.org/1999/xlink" width="132" height="132" viewBox="0 0 132 132">
  <defs>
    <filter id="bg" x="0" y="0" width="132" height="132" filterUnits="userSpaceOnUse">
      <feOffset dy="12" input="SourceAlpha"/>
      <feGaussianBlur stdDeviation="8" result="blur"/>
      <feFlood flood-color="#455b63" flood-opacity="0.102"/>
      <feComposite operator="in" in2="blur"/>
      <feComposite in="SourceGraphic"/>
    </filter>
  </defs>
  <g id="Instagram" transform="translate(24 12)">
    <g transform="matrix(1, 0, 0, 1, -24, -12)" filter="url(#bg)">
      <rect id="bg-2" data-name="bg" width="84" height="84" rx="12" transform="translate(24 12)" fill="#34495e"/>
    </g>
    <path id="icon" d="M813.469,575.306V564.164a1.57,1.57,0,0,1,.118-.8,2.32,2.32,0,0,1,.825-.383l.53-.118V575.3h2.122V562.63h1.356V575.3h2.122V562.572h27.882a9.6,9.6,0,0,1,4.922,1.325A10.443,10.443,0,0,1,857,567.463a9.466,9.466,0,0,1,1.444,4.834q.057,1.474.059,3.537-.06,4.363-.059,3.594h-15.8a1.015,1.015,0,0,1-.825-.353,13.578,13.578,0,0,0-5.836-3.183,12.722,12.722,0,0,0-6.484.031,13.813,13.813,0,0,0-5.836,3.213.848.848,0,0,1-.59.295H807.457l-.295-.059v-2.24q-.06.7-.059-2.713a26.171,26.171,0,0,1,.118-2.712,9.548,9.548,0,0,1,3.949-7.133l.236-.059V575.3h2.063Zm30.063,5.716h14.914v23.165a9.688,9.688,0,0,1-1.356,5.01,9.959,9.959,0,0,1-3.655,3.625,9.854,9.854,0,0,1-5.01,1.326H817.183a9.3,9.3,0,0,1-5.01-1.3,10.4,10.4,0,0,1-3.684-3.653,9.524,9.524,0,0,1-1.385-5.011V581.08h14.914a12.974,12.974,0,0,0-1.65,11.907,13.4,13.4,0,0,0,10.581,8.636,13.306,13.306,0,0,0,5.63-.444,12.88,12.88,0,0,0,4.951-2.77,12.516,12.516,0,0,0,3.3-4.716,13.281,13.281,0,0,0,1-6.129A14.279,14.279,0,0,0,843.533,581.022ZM832.8,598.707a10.279,10.279,0,0,1-5.128-1.326,9.749,9.749,0,0,1-3.714-3.653,10.152,10.152,0,0,1,0-10.137,10.19,10.19,0,0,1,3.714-3.715,9.9,9.9,0,0,1,5.1-1.384,9.746,9.746,0,0,1,5.07,1.384,10.28,10.28,0,0,1,3.684,3.715,10.152,10.152,0,0,1,0,10.137,9.8,9.8,0,0,1-3.684,3.653A10,10,0,0,1,832.8,598.707Zm7.427-10.078a7.54,7.54,0,0,0-3.714-6.484,7.492,7.492,0,0,0-7.486,0,7.486,7.486,0,0,0-2.712,2.712,7.492,7.492,0,0,0,0,7.486,7.67,7.67,0,0,0,2.712,2.741,7.106,7.106,0,0,0,3.743,1.031,7.262,7.262,0,0,0,3.743-1,7.463,7.463,0,0,0,2.712-2.712A7.318,7.318,0,0,0,840.232,588.628Zm13.558-17.39v-2.713a1.63,1.63,0,0,0-.442-1.207,1.555,1.555,0,0,0-1.15-.442q-2.712-.058-5.482,0a1.482,1.482,0,0,0-1.179.47,1.813,1.813,0,0,0-.413,1.238v5.425a1.626,1.626,0,0,0,.442,1.207,1.556,1.556,0,0,0,1.15.444h5.423a1.53,1.53,0,0,0,1.65-1.651Z" transform="translate(-790.892 -546.362)" fill="#fff"/>
  </g>
</svg>
