<svg data-name="Layer 1" xmlns="http://www.w3.org/2000/svg" width="841.89" height="595.28"><rect id="backgroundrect" width="100%" height="100%" x="0" y="0" fill="none" stroke="none"/><title>Bella</title><g class="currentLayer" style=""><title>Layer 1</title><path d="M486.32936889649136,340.39691162109375 a28.639999389648438,28.639999389648438 0 0 0 -16.15999984741211,-9.140000343322754 c1.8700000047683716,-0.8299999833106995 3.180000066757202,-1.4299999475479126 3.9100000858306885,-1.7899999618530273 a38.130001068115234,38.130001068115234 0 0 0 4.059999942779541,-2.7300000190734863 q8.119999885559082,-6.239999771118164 8.109999656677246,-19.049999237060547 a27.8799991607666,27.8799991607666 0 0 0 -7.489999771118164,-19 q-3.9200000762939453,-4.510000228881836 -11.9399995803833,-7.179999828338623 a61.20000076293945,61.20000076293945 0 0 0 -19.1200008392334,-2.6600000858306885 H423.61937744141323 V268.4268798828125 h10.140000343322754 a10.430000305175781,10.430000305175781 0 0 0 0,-4.449999809265137 h0 a10.380000114440918,10.380000114440918 0 0 1 -9.899999618530273,-8.149999618530273 a10.5,10.5 0 0 1 0,-4.369999885559082 a10.390000343322754,10.390000343322754 0 0 1 8.84000015258789,-8.15999984741211 a10,10 0 0 1 1.100000023841858,-0.07999999821186066 a10.789999961853027,10.789999961853027 0 0 0 0.2199999988079071,-2.140000104904175 a10.229999542236328,10.229999542236328 0 0 0 -0.23999999463558197,-2.2300000190734863 h-5.489999771118164 a10.260000228881836,10.260000228881836 0 0 0 1.8700000047683716,-5.849999904632568 v-0.09000000357627869 a10.399999618530273,10.399999618530273 0 0 0 -10.390000343322754,-10.380000114440918 c-0.25999999046325684,0 -0.5199999809265137,0 -0.7799999713897705,0 v-4.150000095367432 h-1.409999966621399 V216.57687377929688 a5.510000228881836,5.510000228881836 0 1 0 -8.1899995803833,0 v1.840000033378601 H407.99938232422573 V222.57687377929688 c-0.25,0 -0.5199999809265137,0 -0.7799999713897705,0 a10.140000343322754,10.140000343322754 0 0 0 -3.319999933242798,0.550000011920929 a10.359999656677246,10.359999656677246 0 0 0 -7.059999942779541,9.829999923706055 c0,0.1899999976158142 0,0.3700000047683716 0,0.5400000214576721 a10.260000228881836,10.260000228881836 0 0 0 1.850000023841858,5.400000095367432 h-4.940000057220459 a10.229999542236328,10.229999542236328 0 0 0 -0.23999999463558197,2.2300000190734863 a10.789999961853027,10.789999961853027 0 0 0 0.2199999988079071,2.140000104904175 a10,10 0 0 1 1.100000023841858,0.07999999821186066 a10.390000343322754,10.390000343322754 0 0 1 8.84000015258789,8.15999984741211 a10.5,10.5 0 0 1 0,4.369999885559082 a10.380000114440918,10.380000114440918 0 0 1 -9.899999618530273,8.149999618530273 h0 a10.430000305175781,10.430000305175781 0 0 0 0,4.449999809265137 h10.140000343322754 v10.380000114440918 H349.5493701171945 v31.139999389648438 h17 V295.826904296875 h37.290000915527344 V324.076904296875 H376.70937377930386 v17 h27.149999618530273 v46.81999969482422 H452.99938232422573 q22.31999969482422,0 31.530000686645508,-10.140000343322754 a29.31999969482422,29.31999969482422 0 0 0 7.809999942779541,-20.139999389648438 Q492.33937866211636,347.34686279296875 486.32936889649136,340.39691162109375 zm-62.66999816894531,-44.56999969482422 h23.56999969482422 q10.140000343322754,0 15,3.440000057220459 t4.840000152587891,11.229999542236328 q0,13.59000015258789 -20,13.579999923706055 H423.6593859863351 zm44.40999984741211,71.87999725341797 q-5.400000095367432,3.190000057220459 -15.539999961853027,3.200000047683716 H423.6593859863351 V341.09686279296875 H450.199394531257 q23.25,0 23.25,14.510000228881836 Q473.449394531257,364.51690673828125 468.0693896484445,367.7069091796875 z" id="svg_1" class="" opacity="1"/><path d="M351.16,285.61a6.9,6.9,0,1,0,13.8,0c0-6.53-6.9-15.34-6.9-15.34S351.16,279.08,351.16,285.61Z" id="svg_2" class=""/></g></svg>