<svg id="Section_Icon" data-name="Section Icon" xmlns="http://www.w3.org/2000/svg" width="264" height="264" viewBox="0 0 264 264">
  <path id="Path_391" data-name="Path 391" d="M237.841,151.86a90.2,90.2,0,0,0,22.74-48.151c.007-.048.012-.1.018-.144a91.12,91.12,0,0,0,.9-12.815,90.2,90.2,0,0,0-12.614-46.118,4.157,4.157,0,0,0-.239-.464,91.315,91.315,0,0,0-32.3-31.9A90.784,90.784,0,0,0,82.669,68.862c-.03.093-.057.188-.08.285a90.749,90.749,0,0,0-2.32,14.6c0,.023,0,.045-.005.068-.013.171-.025.341-.038.512,0,.031,0,.062-.007.094-.01.15-.021.3-.03.45l-.008.121c-.009.143-.018.286-.026.43l-.009.159c-.008.146-.016.292-.024.439l-.009.182q-.01.2-.019.392l-.008.179q-.009.188-.015.376l-.006.161q-.009.221-.015.442c0,.056,0,.113-.005.17q-.007.23-.013.461c0,.037,0,.074,0,.111q-.005.218-.01.436c0,.032,0,.064,0,.1q0,.246-.008.492l0,.118c0,.166,0,.332,0,.5,0,.031,0,.062,0,.093q0,.264,0,.529t0,.526c0,.051,0,.1,0,.153,0,.137,0,.274,0,.411l0,.124q.008.561.022,1.121v.007a90.782,90.782,0,0,0,57.933,82.3q.187.073.378.126a90.915,90.915,0,0,0,53.736,3.451c.092-.016.185-.035.276-.057a90.37,90.37,0,0,0,45.487-27.052ZM197.351,29.636l-6.319-3.452a12.292,12.292,0,0,0-17.811,7.774l-.029.116a4.038,4.038,0,0,1-3.919,3.051H154.487a4.057,4.057,0,0,1-4.042-3.991l-.281-22.176a84.566,84.566,0,0,1,20.985-2.7,82.349,82.349,0,0,1,69.172,38.2L229.529,66.265a4.127,4.127,0,0,1-4.893,1.951l-18.089-5.857a4.032,4.032,0,0,1-2.8-3.846V40.423a12.285,12.285,0,0,0-6.4-10.787Zm-50.3,140.146,11.823-11.823a12.294,12.294,0,0,0,3.625-8.751V130.926a12.382,12.382,0,0,0-2.979-8.054l-5.085-5.933-6.264,5.369,5.085,5.933a4.128,4.128,0,0,1,.993,2.684v18.281a4.1,4.1,0,0,1-1.208,2.917l-14.555,14.555a82.635,82.635,0,0,1-50.23-74.831c0-.032,0-.065,0-.1q0-.194,0-.388c0-.043,0-.087,0-.13q0-.24,0-.481,0-.263,0-.525c0-.068,0-.137,0-.2,0-.108,0-.216,0-.323,0-.079,0-.159,0-.238,0-.095,0-.19,0-.284s0-.191.006-.286c0-.079,0-.159.005-.238l.008-.275c0-.084,0-.168.007-.252s.006-.167.009-.251.006-.185.01-.276.007-.162.01-.244.007-.187.011-.28c0-.069.006-.137.01-.206q.008-.166.016-.333c0-.045.005-.091.007-.137q.01-.2.021-.392c0-.033,0-.066.006-.1q.013-.22.027-.441c0-.006,0-.013,0-.019a82.238,82.238,0,0,1,1.489-11.194h12.744a4.142,4.142,0,0,1,3.966,2.992l4.831,16.908a12.428,12.428,0,0,0,11.9,8.974h6.482a4.12,4.12,0,0,1,3.132,1.441l8.138,9.494,6.264-5.369L139.226,99.2a12.359,12.359,0,0,0-9.4-4.321h-6.482a4.142,4.142,0,0,1-3.966-2.992l-4.831-16.908A12.428,12.428,0,0,0,102.652,66H92.042a82.9,82.9,0,0,1,49.9-52.563l.251,19.8a12.339,12.339,0,0,0,12.291,12.137h14.785A12.281,12.281,0,0,0,181.19,36.1l.029-.116a4.043,4.043,0,0,1,5.857-2.556l6.319,3.452a4.041,4.041,0,0,1,2.1,3.548v18.09a12.261,12.261,0,0,0,8.505,11.695l18.089,5.857a12.373,12.373,0,0,0,14.68-5.854l8.3-15.246A82.016,82.016,0,0,1,253.25,90.75q0,4.176-.409,8.25H231.53a12.436,12.436,0,0,0-12.251,10.625l-.756,5.29,8.167,1.167.756-5.29a4.146,4.146,0,0,1,4.084-3.542h20.062A82.8,82.8,0,0,1,195.5,169.458V149.815a4.12,4.12,0,0,1,2.5-3.791l19.613-8.406a12.447,12.447,0,0,0,7.375-9.624l.523-3.659-8.167-1.167-.523,3.659a4.15,4.15,0,0,1-2.459,3.208L194.75,138.44a12.362,12.362,0,0,0-7.5,11.375v21.777a82.793,82.793,0,0,1-40.2-1.811Z" transform="translate(-38.75)" fill="#28cb54"/>
  <path id="Path_392" data-name="Path 392" d="M304,208h8.25v8.25H304Z" transform="translate(-147.25 -100.75)" fill="#28cb54"/>
  <path id="Path_393" data-name="Path 393" d="M176,104h8.25v8.25H176Z" transform="translate(-85.25 -50.375)" fill="#28cb54"/>
  <path id="Path_394" data-name="Path 394" d="M69.9,274.433,55.646,261.6A20.627,20.627,0,0,0,33,258.3V221.2a28.331,28.331,0,0,0-8.5-20.318,28.274,28.274,0,0,0-20.434-8.215A4.125,4.125,0,0,0,0,196.789v77.688a4.123,4.123,0,0,0,.481,1.933L33,337.721v19.6h8.25V336.695a4.123,4.123,0,0,0-.481-1.933L8.25,273.45V201.26a20.127,20.127,0,0,1,10.458,5.493A20.14,20.14,0,0,1,24.75,221.2v45.379c0,.02,0,.04,0,.059s0,.012,0,.018c0,.022,0,.044,0,.066v.006a4.11,4.11,0,0,0,.521,1.856l.014.025.024.041.02.034.022.037.026.042.017.027.046.071,16.5,24.75,6.864-4.576L34.235,267.174a12.374,12.374,0,0,1,15.891.559l14.258,12.832a37.3,37.3,0,0,1,12.137,30.956l-2.255,24.8c-.011.125-.017.249-.017.374V357.32H82.5V336.882l2.238-24.614A45.586,45.586,0,0,0,69.9,274.433Z" transform="translate(0 -93.32)" fill="#28cb54"/>
  <path id="Path_395" data-name="Path 395" d="M428.157,192.664A28.536,28.536,0,0,0,399.225,221.2v37.1A20.626,20.626,0,0,0,376.58,261.6l-14.258,12.832a45.583,45.583,0,0,0-14.835,37.835l2.238,24.614V357.32h8.25V336.7q0-.187-.017-.373l-2.255-24.8a37.3,37.3,0,0,1,12.137-30.956L382.1,267.734a12.373,12.373,0,0,1,15.891-.559l-14.572,21.858,6.864,4.576,16.5-24.75.046-.071.017-.027.026-.042.022-.037.02-.034.024-.041.014-.025a4.11,4.11,0,0,0,.521-1.856v-.006c0-.022,0-.044,0-.066,0-.006,0-.012,0-.018s0-.04,0-.059V221.2a20.3,20.3,0,0,1,16.5-19.937v72.19l-32.519,61.312a4.123,4.123,0,0,0-.481,1.933V357.32h8.25v-19.6l32.519-61.312a4.127,4.127,0,0,0,.481-1.933V196.789a4.125,4.125,0,0,0-4.068-4.125Z" transform="translate(-168.225 -93.32)" fill="#28cb54"/>
  <path id="Path_396" data-name="Path 396" d="M432,32h8.25v8.25H432Z" transform="translate(-209.25 -15.5)" fill="#28cb54"/>
  <path id="Path_397" data-name="Path 397" d="M432,64h8.25v8.25H432Z" transform="translate(-209.25 -31)" fill="#28cb54"/>
  <path id="Path_398" data-name="Path 398" d="M416,48h8.25v8.25H416Z" transform="translate(-201.5 -23.25)" fill="#28cb54"/>
  <path id="Path_399" data-name="Path 399" d="M448,48h8.25v8.25H448Z" transform="translate(-217 -23.25)" fill="#28cb54"/>
  <path id="Path_400" data-name="Path 400" d="M32,112h8.25v8.25H32Z" transform="translate(-15.5 -54.25)" fill="#28cb54"/>
  <path id="Path_401" data-name="Path 401" d="M32,144h8.25v8.25H32Z" transform="translate(-15.5 -69.75)" fill="#28cb54"/>
  <path id="Path_402" data-name="Path 402" d="M16,128h8.25v8.25H16Z" transform="translate(-7.75 -62)" fill="#28cb54"/>
  <path id="Path_403" data-name="Path 403" d="M48,128h8.25v8.25H48Z" transform="translate(-23.25 -62)" fill="#28cb54"/>
  <path id="Path_404" data-name="Path 404" d="M260.568,152.989l-.923-3.694a12.375,12.375,0,0,0-15.405-8.9l-9.806,2.8a12.253,12.253,0,0,0-8.216,7.629,12.6,12.6,0,0,0-.547,1.956q-.035.179-.064.359c-.02.12-.038.24-.054.359q-.036.27-.06.54-.016.18-.027.36-.022.36-.022.72c0,.12,0,.24.005.359s.009.233.015.35c0,.007,0,.014,0,.021.007.11.015.221.024.332,0,.01,0,.021,0,.031a12.326,12.326,0,0,0,2.043,5.747l4.648,6.973a12.33,12.33,0,0,0,9.077,5.45q.619.061,1.233.061a12.325,12.325,0,0,0,8.737-3.625l6.081-6.081a12.432,12.432,0,0,0,3.256-11.751Zm-9.088,5.918-6.081,6.081a4.132,4.132,0,0,1-4.22,1c-.072-.024-.143-.049-.213-.077s-.14-.057-.208-.089a4.115,4.115,0,0,1-1.707-1.46l-4.648-6.973a4.124,4.124,0,0,1,2.3-6.254l9.807-2.8.091-.025.024-.006.079-.02.012,0,.094-.021.014,0,.084-.017.013,0,.095-.016.01,0,.088-.012.013,0c.064-.008.129-.015.194-.02h.012c.065-.005.131-.009.2-.01h.008q.2-.005.4.009h0c.067,0,.134.011.2.02h0c.067.008.133.018.2.029h0c.066.011.132.025.2.04h0q.1.022.195.05l.005,0,.1.028h0l.09.029.009,0,.091.032.01,0,.083.031.011,0,.087.036.014.006.081.036.008,0,.085.04.017.008.078.039.008,0,.08.042.022.012.08.045a4.092,4.092,0,0,1,1.939,2.571l.923,3.694a4.146,4.146,0,0,1-1.085,3.916Z" transform="translate(-109.199 -67.771)" fill="#28cb54"/>
</svg>
