<svg xmlns="http://www.w3.org/2000/svg" width="70.237" height="54.298" viewBox="0 0 70.237 54.298">
  <g id="Upload_Icon" data-name="Upload Icon" transform="translate(0 -33.378)">
    <path id="Path_429" data-name="Path 429" d="M54.2,51.257a19.153,19.153,0,0,0-38.222.007,18.278,18.278,0,0,0,2.308,36.412H46.1a1.433,1.433,0,1,0,0-2.865H18.289a15.413,15.413,0,0,1-.838-30.8,1.433,1.433,0,0,0,1.356-1.431c0-.028,0-.056,0-.085a16.287,16.287,0,0,1,32.574,0c0,.028,0,.057,0,.079A1.432,1.432,0,0,0,52.737,54a15.409,15.409,0,0,1,8.937,27.354,1.433,1.433,0,1,0,1.808,2.223A18.275,18.275,0,0,0,54.2,51.257Z" transform="translate(0 0)" fill="#454f63"/>
    <path id="Path_430" data-name="Path 430" d="M140.966,136.511V154.78a1.433,1.433,0,1,0,2.865,0V136.511a1.433,1.433,0,1,0-2.865,0Z" transform="translate(-107.307 -77.417)" fill="#454f63"/>
    <path id="Path_431" data-name="Path 431" d="M124.47,116.947a1.433,1.433,0,0,0,1.013-2.446l-8.194-8.194a1.433,1.433,0,0,0-2.026,0l-8.194,8.194a1.433,1.433,0,0,0,2.026,2.026l7.181-7.181,7.181,7.181A1.429,1.429,0,0,0,124.47,116.947Z" transform="translate(-81.184 -55.196)" fill="#454f63"/>
  </g>
</svg>
