<svg xmlns="http://www.w3.org/2000/svg" xmlns:xlink="http://www.w3.org/1999/xlink" width="710.105" height="658.346" viewBox="0 0 710.105 658.346">
  <defs>
    <linearGradient id="linear-gradient" x1="0.5" y1="1" x2="0.5" gradientUnits="objectBoundingBox">
      <stop offset="0" stop-color="gray" stop-opacity="0.251"/>
      <stop offset="0.54" stop-color="gray" stop-opacity="0.122"/>
      <stop offset="1" stop-color="gray" stop-opacity="0.102"/>
    </linearGradient>
    <linearGradient id="linear-gradient-2" x1="0.507" y1="1.003" x2="0.507" y2="0" xlink:href="#linear-gradient"/>
  </defs>
  <g id="Congratulations_Icon" data-name="Congratulations Icon" transform="translate(0.003 -0.18)">
    <ellipse id="Ellipse_52" data-name="Ellipse 52" cx="171.543" cy="13.119" rx="171.543" ry="13.119" transform="translate(210.045 632.288)" fill="#6c63ff"/>
    <ellipse id="Ellipse_53" data-name="Ellipse 53" cx="171.543" cy="13.119" rx="171.543" ry="13.119" transform="translate(210.045 632.288)" opacity="0.4"/>
    <path id="Path_433" data-name="Path 433" d="M361.623,101.013c24.05-21.466,61.885-25.842,96.315-24.112C566.06,82.27,663.67,134.473,748.084,193.519c30.558,21.381,60.651,44.414,80.5,73.848,40.388,59.922,28.4,142.94-27.758,192.3-19.108,16.8-42.265,29.674-66.043,41.117C692.5,521.082,646.874,537.373,598.891,542c-34.22,3.313-68.867.621-102.886-4-95.035-12.94-188.332-41.4-266.531-90.217-34.3-21.389-66.625-47.975-80.76-82.583s-5.089-78.448,29.93-98.929c14.484-8.472,31.808-12.3,48.759-15.888,24.957-5.291,50.318-10.5,72.839-21.249,23.274-11.109,50.8-32.583,46.2-57.153C341.5,145.621,337.573,122.456,361.623,101.013Z" transform="translate(-142.33 -36.993)" fill="#6c63ff"/>
    <path id="Path_434" data-name="Path 434" d="M361.623,101.013c24.05-21.466,61.885-25.842,96.315-24.112C566.06,82.27,663.67,134.473,748.084,193.519c30.558,21.381,60.651,44.414,80.5,73.848,40.388,59.922,28.4,142.94-27.758,192.3-19.108,16.8-42.265,29.674-66.043,41.117C692.5,521.082,646.874,537.373,598.891,542c-34.22,3.313-68.867.621-102.886-4-95.035-12.94-188.332-41.4-266.531-90.217-34.3-21.389-66.625-47.975-80.76-82.583s-5.089-78.448,29.93-98.929c14.484-8.472,31.808-12.3,48.759-15.888,24.957-5.291,50.318-10.5,72.839-21.249,23.274-11.109,50.8-32.583,46.2-57.153C341.5,145.621,337.573,122.456,361.623,101.013Z" transform="translate(-142.33 -36.993)" opacity="0.4"/>
    <path id="Path_435" data-name="Path 435" d="M677.143,82.244v1.389a8.958,8.958,0,0,1-.054,1.195v.248c0,.334-.039.667-.07.993v.287a1.079,1.079,0,0,1,0,.155,8.961,8.961,0,0,1-.078.908c-.031.3-.054.481-.078.729-.07.6-.147,1.195-.241,1.792-.054.4-.116.776-.178,1.179a.341.341,0,0,0,0,.085c-.039.194-.07.388-.109.59s-.039.225-.062.341a.851.851,0,0,1-.062.31,3.961,3.961,0,0,0-.124.621c-.047.2-.085.411-.132.621s-.062.3-.1.458-.116.52-.178.776a.1.1,0,0,0,0,.047l-.14.535-.163.652c-.07.264-.147.528-.217.776a.269.269,0,0,1-.062.209l-.233.776c-.248.822-.52,1.645-.776,2.459l-.279.776-.163.427a55.085,55.085,0,0,1-7.564,13.592c-.186.264-.388.52-.582.776a57.953,57.953,0,0,1-4.771,5.431L581.4,200.708l-79.317-79.333a56.175,56.175,0,0,1-6.206-7.386,54.321,54.321,0,0,1-3.227-5.151,56.128,56.128,0,0,1-6.78-31.893c.085-1.016.2-2.033.341-3.041.248-1.784.59-3.561,1.008-5.322.085-.357.178-.714.272-1.063.047-.178.093-.365.14-.535s.054-.217.085-.326l.233-.776h0c.186-.613.372-1.226.574-1.839l.287-.838c.419-1.187.869-2.327,1.365-3.522l.3-.69c.155-.349.31-.7.473-1.047.264-.559.535-1.117.776-1.668l.07-.124h0c.124-.256.256-.5.388-.776l.458-.846c.194-.349.4-.7.6-1.047.093-.163.194-.326.287-.5s.116-.178.171-.279a.316.316,0,0,0,0-.054h0c.124-.2.248-.4.38-.605s.287-.458.434-.683c.326-.5.659-1.009,1-1.505l.365-.52.458-.628c.155-.225.318-.442.489-.659l.59-.776c.186-.225.365-.458.543-.683l.194-.233.4-.481c.2-.248.411-.489.621-.729l.272-.318.047-.054.473-.528.528-.582c.5-.535,1.008-1.071,1.552-1.552l.613-.605.954-.9c.209-.194.419-.388.636-.574s.5-.45.776-.667l.5-.419c.163-.147.334-.287.5-.419a12.54,12.54,0,0,1,1.008-.776l.512-.4c.853-.652,1.714-1.28,2.6-1.885l.528-.357.535-.349.5-.326.776-.465.372-.225.543-.318c.729-.427,1.458-.838,2.2-1.226l.442-.233.683-.349.566-.279.566-.264.566-.272.574-.256.574-.248c.776-.334,1.552-.644,2.327-.939l.5-.31.621-.225.551-.194.465-.155,1.071-.341.551-.171.442-.124.435-.124q.388-.116.776-.209l1.024-.264c1.055-.256,2.118-.489,3.181-.683l.434-.078.605-.1.621-.1.776-.116.458-.062c1.024-.132,2.048-.24,3.1-.318h7.207a4.474,4.474,0,0,1,.776.047h.527c.822.062,1.645.147,2.459.241l1.1.147.776.109.613.1.613.1.4.07q1.59.295,3.165.675l1.288.334.357.1.551.155c.357.1.714.2,1.063.318l.465.147q1.164.357,2.327.776l.527.194.691.264,1.039.419c.4.171.776.341,1.187.52l.465.2.636.3.566.264.559.279.706.357.558.295c.435.233.869.465,1.3.714l.543.31c.636.365,1.257.776,1.877,1.14l.5.326.535.349.528.357h0l.349.24c.776.52,1.482,1.063,2.211,1.621l.512.4c.334.264.675.535,1.009.776.163.132.334.272.5.419l.5.419.776.667c.217.186.427.38.636.574l.892.946.613.605.621-.605.946-.9c.209-.194.419-.388.636-.574s.5-.45.776-.667l.5-.419c.163-.147.333-.287.5-.419a12.552,12.552,0,0,1,1.009-.776l.512-.4c.853-.652,1.715-1.28,2.6-1.885l.528-.357.535-.349.5-.326.737-.465.372-.225.543-.318c.729-.427,1.458-.838,2.2-1.226l.442-.233.683-.349.566-.279.566-.264.566-.272.574-.256.574-.248c.776-.334,1.552-.644,2.328-.939.186-.07.38-.147.574-.209l.613-.225.559-.194.458-.155,1.071-.341.551-.171.442-.124.435-.124c.256-.078.512-.147.776-.209L607.7,27.3c1.055-.256,2.118-.489,3.181-.683l.435-.078.605-.1.621-.1.776-.116.458-.062c1.024-.132,2.048-.24,3.1-.318h7.137a4.473,4.473,0,0,1,.776.047h.528c.822.062,1.645.147,2.459.24l1.1.147.776.109.613.1.613.1.4.07q1.59.295,3.165.675l1.288.334.357.1.551.155c.357.1.714.2,1.071.318l.458.147c.776.24,1.552.5,2.327.776l.52.194.69.264,1.04.419c.4.171.776.341,1.187.52l.465.2.636.3.566.264.558.279.706.357.566.295c.427.233.861.465,1.288.714l.543.31c.636.365,1.264.776,1.877,1.14l.5.326.535.349.528.357h.039l.349.241c.776.52,1.482,1.063,2.211,1.621l.512.4c.334.264.675.535,1.009.776.163.132.334.272.5.419l.5.419.644.574c.217.194.434.388.644.59l.365.334h0a.36.36,0,0,1,.054.054c.209.186.411.388.621.582l.279.272c.109.116.217.225.334.334l.613.628c.31.318.621.644.923.977.178.186.357.38.527.574.295.326.582.652.869.985l.915,1.094c1.047,1.288,2.025,2.607,2.948,3.957l.372.566c.14.2.264.4.4.605l.334.52c.186.3.372.6.551.9l.489.838c.1.171.2.341.295.512l.225.4.225.4.326.613.318.613q1.094,2.141,1.986,4.368l.256.628c.24.613.465,1.218.683,1.839l.194.559c.085.264.178.528.256.776s.155.473.225.714l.14.45c.07.217.132.434.194.652s.147.535.225.776c.116.434.225.869.334,1.311l.163.683c.078.326.148.652.217.978a2,2,0,0,0,.085.419c.031.14.078.372.109.559s.062.295.085.442l.07.372a.7.7,0,0,0,.062.349c.062.116,0,.225.054.341l.116.7a4.338,4.338,0,0,0,.1.7c.039.233.07.52.1.776s.062.5.085.776l.047.427c0,.256.054.512.078.776v.38c0,.264.047.528.062.776a.115.115,0,0,1,0,.054v1a6.055,6.055,0,0,0,.039.838h0v.861A9.933,9.933,0,0,1,677.143,82.244Z" transform="translate(-219.309 -25.61)" fill="#ff6584"/>
    <path id="Path_436" data-name="Path 436" d="M677.587,82.244v1.389a8.958,8.958,0,0,1-.054,1.195v.248c0,.334-.039.667-.07.993v.287a1.062,1.062,0,0,1,0,.155,8.961,8.961,0,0,1-.078.908c-.031.3-.054.481-.078.729-.07.6-.147,1.195-.24,1.792-.054.4-.116.776-.179,1.179a.347.347,0,0,0,0,.085c-.039.194-.07.388-.109.59s-.039.225-.062.341a.85.85,0,0,1-.062.31,3.975,3.975,0,0,0-.124.621c-.047.2-.085.411-.132.621s-.062.3-.1.458-.116.52-.178.776a.1.1,0,0,0,0,.047l-.14.535-.163.652c-.07.264-.147.528-.217.776a.269.269,0,0,1-.062.209l-.233.776c-.248.822-.52,1.645-.776,2.459l-.279.776-.163.427A56.129,56.129,0,0,0,649.62,41.065q-1.513-.962-3.057-1.815a56.074,56.074,0,0,0-66.8,9.589,56.221,56.221,0,0,0-6.85-5.818h0a55.266,55.266,0,0,0-5.8-3.677,56.206,56.206,0,0,0-54.011,0,55.448,55.448,0,0,0-7.967,5.322,57.3,57.3,0,0,0-13.964,16.346.276.276,0,0,1,0,.07,53.255,53.255,0,0,0-2.4,4.8c-.4.9-.776,1.815-1.125,2.731.085-.357.178-.714.271-1.063.047-.178.093-.365.14-.535s.054-.217.085-.326l.233-.776h0c.186-.613.372-1.226.574-1.839l.287-.838c.419-1.187.869-2.327,1.365-3.522l.3-.69c.155-.349.31-.7.473-1.047.264-.559.535-1.117.776-1.668l.07-.124h0c.124-.256.256-.5.388-.776l.458-.846c.194-.349.4-.7.6-1.047.093-.163.194-.326.287-.5s.116-.178.171-.279a.336.336,0,0,0,0-.054h0c.124-.2.248-.4.38-.605s.287-.458.434-.683c.326-.5.659-1.009,1-1.505l.365-.52.458-.628c.155-.225.318-.442.489-.659l.59-.776c.186-.225.365-.458.543-.683l.194-.233.4-.481c.2-.248.411-.489.621-.729l.272-.318.047-.054.473-.528.528-.582c.5-.535,1.009-1.071,1.552-1.552l.613-.605.954-.9c.209-.194.419-.388.636-.574s.5-.45.776-.667l.5-.419c.163-.147.334-.287.5-.419a12.561,12.561,0,0,1,1.009-.776l.512-.4c.853-.652,1.714-1.28,2.6-1.885l.528-.357.535-.349.5-.326.776-.465.372-.225.543-.318c.729-.427,1.458-.838,2.2-1.226l.442-.233.683-.349.566-.279.566-.264.566-.272.574-.256.574-.248c.776-.334,1.552-.644,2.327-.939l.52-.341.621-.225.551-.194.465-.155,1.071-.341.551-.171.442-.124.434-.124q.388-.116.776-.209l1.024-.264c1.055-.256,2.118-.489,3.181-.683l.434-.078.605-.1.621-.1.776-.116.458-.062c1.024-.132,2.048-.24,3.1-.318h7.207a4.473,4.473,0,0,1,.776.047h.527c.822.062,1.645.147,2.459.241l1.1.147.776.109.613.1.613.1.4.07q1.59.295,3.165.675l1.288.334.357.1.551.155c.357.1.714.2,1.063.318l.465.147q1.164.357,2.328.776l.527.194.691.264,1.04.419c.4.171.776.341,1.187.52l.465.2.636.3.566.264.559.279.706.357.559.295c.435.233.869.465,1.3.714l.543.31c.636.365,1.257.776,1.878,1.14l.5.326.535.349.528.357h0l.349.24c.776.52,1.482,1.063,2.211,1.621l.512.4c.334.264.675.535,1.009.776.163.132.334.272.5.419l.5.419.776.667c.217.186.427.38.636.574l.892.946.613.605.621-.605.946-.9c.209-.194.419-.388.636-.574s.5-.45.776-.667l.5-.419c.163-.147.334-.287.5-.419a12.552,12.552,0,0,1,1.009-.776l.512-.4c.853-.652,1.715-1.28,2.6-1.885l.528-.357.535-.349.5-.326.737-.465.372-.225.543-.318c.729-.427,1.458-.838,2.2-1.226l.442-.233.683-.349.566-.279.566-.264.566-.272.574-.256.574-.248c.776-.334,1.552-.644,2.327-.939.186-.07.38-.147.574-.209l.613-.225.559-.194.458-.155,1.071-.341.551-.171.442-.124.434-.124c.256-.078.512-.147.776-.209l1.016-.264c1.055-.256,2.118-.489,3.181-.683l.434-.078.605-.1.621-.1.776-.116.458-.062c1.024-.132,2.048-.24,3.1-.318h7.137a4.473,4.473,0,0,1,.776.047h.528c.822.062,1.645.147,2.459.24l1.1.147.776.109.613.1.613.1.4.07q1.59.295,3.165.675l1.288.334.357.1.551.155c.357.1.714.2,1.07.318l.458.147c.776.24,1.552.5,2.327.776l.52.194.69.264,1.04.419c.4.171.776.341,1.187.52l.465.2.636.3.566.264.559.279.706.357.566.295c.427.233.861.465,1.288.714l.543.31c.636.365,1.264.776,1.877,1.14l.5.326.535.349.528.357h.039l.349.241c.776.52,1.482,1.063,2.211,1.621l.512.4c.334.264.675.535,1.009.776.163.132.334.272.5.419l.5.419.644.574c.217.194.434.388.644.59l.365.334h0a.36.36,0,0,1,.054.054c.209.186.411.388.621.582l.279.272c.109.116.217.225.333.334l.613.628c.31.318.621.644.923.977.178.186.357.38.527.574.295.326.582.652.869.985l.915,1.094c1.047,1.288,2.025,2.607,2.948,3.957l.372.566c.14.2.264.4.4.605l.334.52c.186.3.372.6.551.9l.489.838c.1.171.2.341.295.512l.225.4.225.4.326.613.318.613q1.094,2.141,1.986,4.368l.256.628c.24.613.465,1.218.683,1.839l.194.559c.085.264.178.528.256.776s.155.473.225.714l.14.45c.07.217.132.434.194.652s.147.535.225.776c.116.434.225.869.334,1.311l.163.683c.078.326.147.652.217.978a2,2,0,0,0,.085.419c.031.14.078.372.109.559s.062.295.085.442l.07.372a.7.7,0,0,0,.062.349c.062.116,0,.225.054.341l.116.7a4.338,4.338,0,0,0,.1.7c.039.233.07.52.1.776s.062.5.085.776l.047.427c0,.256.054.512.078.776v.38c0,.264.047.528.062.776a.115.115,0,0,1,0,.054v1a6.045,6.045,0,0,0,.039.838h0v.861A9.952,9.952,0,0,1,677.587,82.244Z" transform="translate(-219.754 -25.61)" opacity="0.1"/>
    <path id="Path_437" data-name="Path 437" d="M882.919,316.482v1.233a.1.1,0,0,1,0,.047v.5l-.07.551a2.837,2.837,0,0,1-.054.357h0v.287a.383.383,0,0,1,0,.093v.194a1.583,1.583,0,0,1-.039.186v.14a.44.44,0,0,1-.054.241h0l-.047.163-.047.194-.07.241v.07a1.6,1.6,0,0,1-.078.24c-.07.256-.155.5-.24.776a.889.889,0,0,1-.085.241.955.955,0,0,1-.054.132,16.713,16.713,0,0,1-2.265,4.135l-.178.241a17.069,17.069,0,0,1-1.458,1.652L853.7,352.626,829.49,328.414a17.285,17.285,0,0,1-1.9-2.25,17.752,17.752,0,0,1-.985-1.552,17.191,17.191,0,0,1-2.071-9.736,6.349,6.349,0,0,1,.109-.931c.077-.543.178-1.086.31-1.621a1.243,1.243,0,0,1,.078-.326l.047-.163v-.1l.07-.24h0c.054-.186.116-.372.178-.559s.054-.171.085-.256q.186-.551.419-1.071l.093-.217.14-.318c.085-.171.163-.341.256-.5v-.039h0l.124-.225.14-.256c.055-.109.116-.217.178-.326l.093-.147.047-.085h0c0-.062.07-.124.109-.186s.093-.14.132-.209.2-.31.31-.458l.109-.163.14-.194.147-.194.186-.24.163-.209.062-.07.116-.147.194-.225.077-.093h0l.147-.163c.047-.062.109-.116.163-.178s.3-.326.465-.489l.186-.178.287-.279.194-.178.233-.2.147-.124.155-.132.3-.248.163-.124c.256-.194.52-.388.776-.574l.163-.109.155-.109.155-.093.233-.147.109-.062.171-.1c.217-.132.442-.256.667-.372l.132-.07.21-.109.17-.085.179-.085.171-.078.17-.078.178-.078.706-.287.178-.062.186-.07.171-.062.14-.047.326-.1.171-.054.132-.039.132-.039.24-.062.31-.078c.318-.085.644-.155.97-.209h.884c.31-.039.621-.078.939-.1h2.6l.776.078.341.047h.721c.326.054.644.124.97.2l.388.1h.109l.171.047.326.1.14.039c.241.078.473.155.706.248l.163.054.209.085.318.124.357.155.147.07.194.085.171.085.17.085.217.109.171.093.4.209.163.1c.194.109.388.225.574.349l.155.093.163.109.163.109h0l.109.078.675.489a1.208,1.208,0,0,0,.155.124l.31.248.147.132.155.124.225.2.194.178.287.279a2.141,2.141,0,0,1,.194.178,1.351,1.351,0,0,1,.186-.178l.287-.279.194-.178.225-.2.155-.124.147-.132.31-.248a1.208,1.208,0,0,0,.155-.124l.776-.574.163-.109L856.4,302l.155-.093.225-.147.116-.062.163-.1q.333-.2.675-.372l.132-.07.209-.109.171-.085.17-.085.179-.078.171-.078.178-.078.706-.287.179-.062.186-.07.171-.062.14-.047.326-.1.171-.054.132-.039.132-.039.233-.062.31-.078q.489-.124.978-.209h.877c.318-.039.628-.078.939-.1h2.6l.776.078a.81.81,0,0,1,.334.047h.729c.318.054.644.124.962.2l.4.1h.109l.171.047.326.1.14.039c.233.078.473.155.706.248l.155.054.21.085.318.124.364.155.14.07.194.085.178.085.171.085.209.109.178.093.388.209.171.1c.194.109.38.225.574.349l.155.093.155.109.163.109h0l.1.078q.349.233.675.489l.163.124.3.248.155.132.147.124.2.178.194.178.108.1h0l.186.178.085.078.1.1.186.194.287.295c.054.062.109.116.155.178l.272.3.279.334a12.9,12.9,0,0,1,.9,1.21l.116.171.116.186.1.155.171.279.147.248.093.163.07.124.062.124a1.333,1.333,0,0,1,.1.178l.093.194c.225.434.427.877.613,1.327,0,.07.054.132.078.194l.209.559a.233.233,0,0,0,.054.178c.054.062.054.155.085.24a1.724,1.724,0,0,1,.062.217l.047.132a.96.96,0,0,0,.054.2l.07.248c.039.132.07.264.1.4a2.029,2.029,0,0,1,.054.209,2.132,2.132,0,0,0,.062.3.286.286,0,0,1,0,.124v2.25h0v.147a1,1,0,0,0,0,.155v.256h0v.264C882.453,316.04,882.926,316.311,882.919,316.482Z" transform="translate(-295.272 -86.962)" fill="#ff6584"/>
    <path id="Path_438" data-name="Path 438" d="M883.138,316.464V317.7a.1.1,0,0,1,0,.047v.5l-.07.551a2.814,2.814,0,0,1-.054.357h0v.287a.371.371,0,0,1,0,.093v.194a1.584,1.584,0,0,1-.039.186q0,.07,0,.14a.441.441,0,0,1-.054.241h0l-.047.163-.047.194-.07.24v.07a1.584,1.584,0,0,1-.078.24c-.07.256-.155.5-.24.776a.892.892,0,0,1-.085.24.964.964,0,0,1-.054.132,16.672,16.672,0,0,0,.473-4.151,17.161,17.161,0,0,0-7.936-14.313c-.31-.2-.621-.38-.939-.559a17.168,17.168,0,0,0-16.478,0,17.816,17.816,0,0,0-1.629,1.016,17.06,17.06,0,0,0-2.234,1.893,17.365,17.365,0,0,0-2.095-1.784h0a17.813,17.813,0,0,0-1.769-1.125,17.067,17.067,0,0,0-18.922,1.629,18.309,18.309,0,0,0-1.428,1.28,16.891,16.891,0,0,0-1.877,2.227c-.341.481-.659.978-.947,1.482h0a16.159,16.159,0,0,0-.729,1.466c-.124.279-.24.559-.341.838a1.248,1.248,0,0,1,.077-.326l.047-.163v-.1l.07-.241h0c.054-.186.116-.372.178-.559s.054-.171.085-.256q.186-.551.419-1.071l.093-.217.14-.318c.085-.171.163-.341.256-.5v-.039h0l.124-.225.14-.256c.054-.109.116-.217.178-.326l.093-.147.047-.085h0c0-.062.07-.124.108-.186s.093-.14.132-.209.2-.31.31-.458l.109-.163.14-.194.148-.194.186-.24.163-.21.062-.07.116-.147.194-.225.078-.093h0l.147-.163c.047-.062.109-.116.163-.178s.3-.326.465-.489l.186-.178.287-.279.194-.178.233-.2.148-.124.155-.132.3-.248.163-.124c.256-.194.52-.388.776-.574l.163-.109.155-.109.155-.093.233-.147.109-.062.171-.1c.217-.132.442-.256.667-.372l.132-.07.209-.109.171-.085.178-.085.17-.078.171-.078.179-.078.706-.287.178-.062.186-.07.171-.062.14-.047.326-.1.171-.054.132-.039.132-.039.24-.062.31-.078c.318-.085.644-.155.97-.209h.884c.31-.039.62-.078.939-.1h2.6l.776.078.341.047h.722c.326.054.644.124.97.2l.388.1h.109l.171.047.326.1.14.039c.24.078.473.155.706.248l.163.054.209.085.318.124.357.155.147.07.194.085.171.085.171.085.217.109.17.093.4.209.163.1c.194.109.388.225.574.349l.155.093.163.109.163.109h0l.108.078.675.489a1.2,1.2,0,0,0,.155.124l.31.248.147.132.155.124.225.2.194.178.287.279a2.117,2.117,0,0,1,.194.178,1.367,1.367,0,0,1,.186-.178l.287-.279.194-.178.225-.2.155-.124.147-.132.31-.248a1.211,1.211,0,0,0,.155-.124l.776-.574.163-.109.163-.109.155-.093.225-.147.116-.062.163-.1q.334-.2.675-.372l.132-.07.209-.109.171-.085.171-.085.179-.078.17-.078.178-.078.706-.287.178-.062.186-.07.171-.062.14-.047.326-.1.171-.054.132-.039.132-.039.233-.062.31-.078q.489-.124.977-.209h.877c.318-.039.628-.078.939-.1h2.6l.776.078a.811.811,0,0,1,.334.047h.729c.318.054.644.124.962.2l.4.1h.109l.171.047.326.1.14.039c.233.078.473.155.706.248l.155.054.209.085.318.124.365.155.14.07.194.085.178.085.171.085.209.109.178.093.388.209.171.1c.194.109.38.225.574.349l.155.093.155.109.163.109h0l.1.078q.349.233.675.489l.163.124.3.248.155.132.147.124.2.178.194.178.109.1h0l.186.178.085.078.1.1.186.194.287.295c.054.062.109.116.155.178l.271.3.279.334a12.875,12.875,0,0,1,.9,1.21l.116.171.116.186.1.155.171.279.147.248.093.163.07.124.062.124a1.3,1.3,0,0,1,.1.178l.093.194c.225.434.427.877.613,1.327,0,.07.054.132.078.194l.21.559a.233.233,0,0,0,.054.178c.054.062.054.155.085.241a1.768,1.768,0,0,1,.062.217l.047.132a.974.974,0,0,0,.054.2l.07.248c.039.132.07.264.1.4a2.035,2.035,0,0,1,.054.209,2.062,2.062,0,0,0,.062.3.293.293,0,0,1,0,.124v2.25h0v.147a.941.941,0,0,0,0,.155v.256h0v.264C882.951,315.96,883.146,316.293,883.138,316.464Z" transform="translate(-295.491 -86.944)" opacity="0.1"/>
    <path id="Path_439" data-name="Path 439" d="M738.337,275.047v1.583a2.079,2.079,0,0,1,0,.217,1.473,1.473,0,0,1-.07.551c-.07.178,0,.241-.054.357h0a1.449,1.449,0,0,1,0,.178.577.577,0,0,1,0,.109v.279l-.047.186a.889.889,0,0,1,0,.14,2.191,2.191,0,0,1-.054.241h0a1.251,1.251,0,0,0,0,.163,1.917,1.917,0,0,0-.054.2l-.07.24a.186.186,0,0,1,0,.062l-.07.248c-.077.248-.155.5-.248.776a.708.708,0,0,1-.085.233l-.047.132a17.063,17.063,0,0,1-2.273,4.143l-.178.233a17.067,17.067,0,0,1-1.451,1.66l-24.213,24.2-24.213-24.2a17.169,17.169,0,0,1-1.893-2.258,16.736,16.736,0,0,1-.993-1.552,17.069,17.069,0,0,1-2.064-9.728,7.443,7.443,0,0,1,.1-.931c.078-.551.178-1.086.31-1.629a1.136,1.136,0,0,1,.085-.318,1.117,1.117,0,0,1,.039-.171.448.448,0,0,1,0-.093l.07-.248h0c.054-.186.109-.372.171-.559l.093-.256c.124-.365.264-.721.411-1.078l.093-.21c.047-.109.093-.217.147-.318s.163-.341.248-.512v-.039h0l.116-.233.14-.256.186-.318a1.61,1.61,0,0,1,.085-.155l.054-.085h0l.116-.186c.039-.07.085-.14.132-.209l.3-.458.116-.155.14-.194.147-.2.178-.24a2.135,2.135,0,0,1,.171-.2.664.664,0,0,1,.054-.078l.124-.14.186-.225.085-.1h0l.14-.163.163-.178.465-.481.186-.186.295-.271a2.142,2.142,0,0,1,.194-.178l.225-.2.155-.132.147-.124.31-.248.155-.124c.256-.2.528-.4.776-.574l.163-.109.163-.109.155-.1.225-.14.109-.07.171-.1c.217-.124.442-.256.667-.372l.14-.07-.016-.178.171-.085.171-.078.171-.085.178-.078.171-.078.714-.287.171-.062.186-.07.171-.054.147-.047.326-.109.163-.047.14-.039.132-.039.233-.07.31-.078.97-.209h.884c.31-.039.628-.07.939-.093h2.6a7.009,7.009,0,0,1,.776.07l.333.047h.721c.326.062.652.132.97.209l.4.1h.109a1.29,1.29,0,0,1,.163.047l.326.093.147.047.7.24.163.062.209.078.318.132.365.155.14.062.194.093.171.078.171.085.217.109.171.093.4.217.171.093.566.349.155.1.163.109.163.109h0l.109.07c.233.163.458.326.675.5a1.213,1.213,0,0,1,.155.124c.109.078.209.163.31.248l.155.124.147.132.225.2a2.108,2.108,0,0,1,.194.178l.295.272.186.186.186-.186.287-.272.194-.178.233-.2.147-.132.155-.124c.1-.085.2-.171.31-.248a1.209,1.209,0,0,1,.155-.124c.256-.2.52-.4.776-.574l.163-.109.163-.109.147-.1.233-.14.109-.07.171-.1c.217-.124.442-.256.667-.372l.132-.07.209-.109.179-.085.17-.078.171-.085.178-.078.171-.078.706-.287.178-.062.186-.07.171-.054.14-.047.326-.109.171-.047.132-.039.132-.039.24-.07.31-.078c.326-.078.644-.147.97-.209h.885c.31-.039.621-.07.939-.093h2.6l.776.07.333.047h.722c.326.062.644.132.97.209l.4.1h.1a1.1,1.1,0,0,1,.171.047l.326.093.14.047.706.241.163.062.21.078.318.132.365.155.14.062.194.093.17.078.171.085.217.109.171.093.4.217.163.093.574.349.155.1.163.109.163.109h0l.109.07.675.5.155.124.31.248.147.124.155.132.194.171.2.178.109.109h0l.194.178.085.085.1.1.186.186.279.3.163.178c.093.093.178.194.264.295l.279.334a14,14,0,0,1,.9,1.21l.116.171.117.186a1.841,1.841,0,0,1,.1.163,3.17,3.17,0,0,1,.171.272c.054.093.1.171.147.256l.093.155.07.124.07.124.093.186c0,.062.07.124.1.186.225.434.427.884.605,1.334a1.437,1.437,0,0,1,.078.194q.116.279.209.559a.506.506,0,0,0,.062.171l.078.24.07.217a.194.194,0,0,0,.039.14c.039.047,0,.132.062.194l.07.248a1.928,1.928,0,0,0,.1.4l.047.209.07.295v.132a1.106,1.106,0,0,1,0,.171.768.768,0,0,1,0,.132.6.6,0,0,1,0,.116V272a1.933,1.933,0,0,1,0,.209,2.08,2.08,0,0,1,0,.217.493.493,0,0,0,.039.233v.954h0v.566h0v.256C738.337,274.69,738.337,274.861,738.337,275.047Z" transform="translate(-262.924 -77.653)" fill="#ff6584"/>
    <path id="Path_440" data-name="Path 440" d="M738.385,275.047v1.583q.005.109,0,.217a1.471,1.471,0,0,1-.07.551c-.07.178,0,.241-.054.357h0a1.474,1.474,0,0,1,0,.178.621.621,0,0,1,0,.109v.279l-.047.186a.9.9,0,0,1,0,.14,2.249,2.249,0,0,1-.054.241h0a1.23,1.23,0,0,0,0,.163,1.948,1.948,0,0,0-.054.2l-.07.24a.183.183,0,0,1,0,.062l-.07.248c-.078.248-.155.5-.248.776a.7.7,0,0,1-.085.233l-.047.132a17.14,17.14,0,0,0-7.471-18.464c-.3-.194-.613-.38-.931-.551a17.137,17.137,0,0,0-16.486,0,15.322,15.322,0,0,0-1.621,1.016,16.511,16.511,0,0,0-2.242,1.885,17.467,17.467,0,0,0-2.095-1.784h0a16.908,16.908,0,0,0-1.769-1.117,17.145,17.145,0,0,0-20.349,2.9,16.885,16.885,0,0,0-2.2,2.227c-.341.481-.652.977-.939,1.482h0c-.264.481-.512.97-.729,1.466-.124.272-.233.551-.341.83a1.145,1.145,0,0,1,.085-.318,1.13,1.13,0,0,1,.039-.171.439.439,0,0,1,0-.093l.07-.248h0c.054-.186.108-.372.17-.559l.093-.256c.124-.365.264-.721.411-1.078l.093-.209c.047-.109.093-.217.147-.318s.163-.341.248-.512v-.039h0l.116-.233.14-.256.186-.318a1.521,1.521,0,0,1,.085-.155l.054-.085h0l.116-.186c.039-.07.085-.14.132-.209l.3-.458.116-.155.14-.194.147-.2.178-.24a2.181,2.181,0,0,1,.171-.2.67.67,0,0,1,.054-.078l.124-.14.186-.225.085-.1h0l.14-.163.163-.178.465-.481.186-.186.295-.272a2.15,2.15,0,0,1,.194-.178l.225-.2.155-.132.147-.124.31-.248.155-.124c.256-.2.528-.4.776-.574l.163-.109.163-.109.155-.1.225-.14.108-.07.171-.1c.217-.124.442-.256.667-.372l.14-.07.295-.132.171-.085.171-.078.171-.085.178-.078.171-.078.714-.287.171-.062.186-.07.171-.054.147-.047.326-.109.163-.047.14-.039.132-.039.233-.07.31-.078.97-.209h.885c.31-.039.628-.07.939-.093h2.6a7,7,0,0,1,.776.07l.334.047h.722c.326.062.652.132.97.209l.4.1h.109a1.3,1.3,0,0,1,.163.047l.326.093.147.047.7.24.163.062.209.078.318.132.365.155.14.062.194.093.171.078.171.085.217.109.171.093.4.217.171.093.566.349.155.1.163.109.163.109h0l.109.07c.233.163.458.326.675.5a1.205,1.205,0,0,1,.155.124c.109.078.209.163.31.248l.155.124.147.132.225.2a2.115,2.115,0,0,1,.194.178l.295.272.186.186.186-.186.287-.272.194-.178.233-.2.147-.132.155-.124c.1-.085.2-.171.31-.248a1.217,1.217,0,0,1,.155-.124c.256-.2.52-.4.776-.574l.163-.109.163-.109.147-.1.233-.14.109-.07.171-.1c.217-.124.442-.256.667-.372l.132-.07.21-.109.178-.085.171-.078.171-.085.179-.078.17-.078.706-.287.178-.062.186-.07.171-.054.14-.047.326-.109.171-.047.132-.039.132-.039.241-.07.31-.078c.326-.078.644-.147.97-.209h.885c.31-.039.621-.07.939-.093h2.6l.776.07.334.047h.722c.326.062.644.132.97.209l.4.1h.1a1.1,1.1,0,0,1,.17.047l.326.093.14.047.706.241.163.062.21.078.318.132.365.155.14.062.194.093.171.078.171.085.217.109.17.093.4.217.163.093.574.349.155.1.163.109.163.109h0l.109.07.675.5.155.124.31.248.147.124.155.132.194.171.2.178.109.109h0l.194.178.085.085.1.1.186.186.279.3.163.178c.093.093.178.194.264.295l.279.334a13.975,13.975,0,0,1,.9,1.21l.116.171.116.186a1.857,1.857,0,0,1,.1.163,3.2,3.2,0,0,1,.171.272c.054.093.1.171.147.256l.093.155.07.124.07.124.093.186c0,.062.07.124.1.186.225.434.427.884.605,1.334a1.428,1.428,0,0,1,.078.194q.116.279.209.559a.507.507,0,0,0,.062.171l.078.24.07.217a.194.194,0,0,0,.039.14c.039.047,0,.132.062.194l.07.248a1.917,1.917,0,0,0,.1.4l.047.209.07.295v.132a1.122,1.122,0,0,1,0,.171.768.768,0,0,1,0,.132.579.579,0,0,1,0,.116V272a1.873,1.873,0,0,1,0,.209,2.08,2.08,0,0,1,0,.217.491.491,0,0,0,.039.233v.954h0v.566h0v.256C738.385,274.69,738.385,274.861,738.385,275.047Z" transform="translate(-262.972 -77.653)" opacity="0.1"/>
    <path id="Path_441" data-name="Path 441" d="M443.276,296.987a.966.966,0,0,1,0,.147v1.4a2.194,2.194,0,0,1,0,.225,3.341,3.341,0,0,1-.07.551c-.031.186,0,.24-.054.357h0a1.227,1.227,0,0,1,0,.178v.4l-.047.186a.9.9,0,0,1,0,.14.392.392,0,0,1-.054.241h0a1.251,1.251,0,0,0-.039.163,1.815,1.815,0,0,0-.054.194l-.07.24a.223.223,0,0,1,0,.07l-.07.24c-.078.256-.155.5-.248.776a2.208,2.208,0,0,1-.085.24l-.047.132A17,17,0,0,1,440.165,307l-.178.241a17.027,17.027,0,0,1-1.451,1.652l-24.212,24.212L390.111,308.9a17.281,17.281,0,0,1-1.9-2.25c-.357-.512-.683-1.04-.985-1.552a17.122,17.122,0,0,1-2.064-9.736,7.6,7.6,0,0,1,.1-.931c.078-.543.178-1.086.31-1.621a1.656,1.656,0,0,1,.078-.326l.047-.163a.5.5,0,0,1,0-.1.917.917,0,0,1,.062-.241h0c.054-.186.109-.372.171-.559s.062-.171.085-.256q.194-.551.419-1.071l.093-.217c.047-.1.093-.209.147-.318s.163-.341.248-.5v-.039h0l.116-.225.14-.256.186-.326.085-.147.054-.085h0l.116-.186c.039-.07.085-.14.132-.209l.3-.458.116-.163.14-.194c.047-.062.093-.132.147-.194a2.782,2.782,0,0,1,.178-.24l.171-.209.054-.07.116-.147.194-.225.085-.093h0l.14-.163.163-.178.465-.489.186-.178.295-.279.194-.178.225-.2.155-.124.147-.132.31-.248.155-.124c.256-.194.52-.388.776-.574l.163-.109.163-.109.155-.093a2.244,2.244,0,0,1,.225-.147l.109-.062.171-.1c.217-.132.442-.256.667-.372l.14-.078.07-.109.171-.085.171-.085.171-.078.178-.078.171-.078.714-.287.171-.062.186-.07.171-.062.147-.047.326-.1.163-.054.14-.039h.132l.233-.062.31-.078c.326-.085.644-.155.97-.209h.512l.233-.039h.14c.31,0,.628-.078.939-.1h2.576l.776.078.334.039.225.039h.5c.326.054.652.124.97.2l.4.1h.109l.163.047.326.1.14.039c.24.078.473.155.706.248l.163.054.209.085.318.124.365.155.14.07.194.085.171.085.171.085.217.109.171.093.4.209.163.1c.194.109.388.225.574.349l.155.093.163.109.163.109h0a.553.553,0,0,1,.109.078q.341.233.675.489l.155.124.31.248.147.132.155.124.225.2.194.178.295.279.186.178.186-.178.287-.279.194-.178.233-.2.147-.124.155-.132.31-.248.155-.124c.256-.194.52-.388.776-.574l.163-.109.163-.109.147-.093.233-.147.109-.062.171-.1c.217-.132.442-.256.667-.372a.777.777,0,0,0,.132-.078l.209-.1.171-.085.178-.085.171-.078.178-.078.171-.078.706-.287.178-.062.186-.07.171-.062.14-.047.326-.1.171-.054.132-.039h.132l.24-.062.31-.078c.318-.085.644-.155.97-.209h.5l.24-.039h.14c.31,0,.621-.078.939-.1h2.6l.776.078.341.039.225.039h.5c.326.054.644.124.97.2l.388.1h.109l.171.047.326.1.14.039c.241.078.473.155.706.248l.163.054.209.085.318.124.357.155.147.07.194.085.171.085.171.085.217.109.171.093.4.209.163.1c.194.109.388.225.574.349l.155.093.163.109.163.109h0l.109.078.675.489.155.124.31.248.147.132.155.124.194.178a2.126,2.126,0,0,1,.194.178l.116.1h0l.194.178.078.078.109.1.186.194.279.295.163.178.264.3.279.334a12.884,12.884,0,0,1,.9,1.21l.116.171.116.186a1.065,1.065,0,0,1,.1.155c.062.093.116.186.171.279s.1.171.147.248l.093.163.07.124.07.124.093.178c.039.062.07.132.1.194a14.494,14.494,0,0,1,.605,1.327l.078.194q.116.279.209.558l.062.178a1.077,1.077,0,0,0,.078.24l.07.217a.167.167,0,0,0,.039.132l.062.2a2.347,2.347,0,0,1,.062.248c.039.132.07.264.109.4l.047.209.07.3v.124a1.327,1.327,0,0,1,0,.171.9.9,0,0,1,0,.14.462.462,0,0,1,0,.109v.427a1.981,1.981,0,0,1,0,.209c0,.078,0,.163,0,.24s0,.15,0,.225v.489a2.376,2.376,0,0,1,0,.24h0a.936.936,0,0,0,0,.147c0,.054,0,.109,0,.155v.256h0v.264C442.919,296.576,443.276,296.817,443.276,296.987Z" transform="translate(-196.761 -82.588)" fill="#ff6584"/>
    <path id="Path_442" data-name="Path 442" d="M443.333,296.987a.982.982,0,0,1,0,.147v1.4q.006.112,0,.225a3.341,3.341,0,0,1-.07.551c-.031.186,0,.24-.054.357h0a1.227,1.227,0,0,1,0,.178v.4l-.047.186a.9.9,0,0,1,0,.14.393.393,0,0,1-.054.241h0a1.231,1.231,0,0,0-.039.163,1.787,1.787,0,0,0-.054.194l-.07.24a.227.227,0,0,1,0,.07l-.07.24c-.078.256-.155.5-.248.776a2.183,2.183,0,0,1-.085.24l-.047.132a16.715,16.715,0,0,0-7.766-18.425c-.3-.2-.621-.38-.931-.559a17.184,17.184,0,0,0-16.486,0,16.714,16.714,0,0,0-1.621,1.016,17.154,17.154,0,0,0-2.242,1.893,16.776,16.776,0,0,0-2.095-1.784h0a17,17,0,0,0-1.769-1.125,17.184,17.184,0,0,0-16.486,0,16.592,16.592,0,0,0-2.428,1.629,17.044,17.044,0,0,0-3.313,3.507c-.341.481-.652.978-.939,1.482h0c-.264.481-.512.97-.729,1.466-.124.279-.233.559-.341.838a1.656,1.656,0,0,1,.078-.326l.047-.163a.5.5,0,0,1,0-.1.913.913,0,0,1,.062-.241h0c.054-.186.109-.372.171-.559s.062-.171.085-.256q.194-.551.419-1.071l.093-.217c.047-.1.093-.209.147-.318s.163-.341.248-.5v-.039h0l.116-.225.14-.256.186-.326.085-.147.054-.085h0l.116-.186c.039-.07.085-.14.132-.209l.3-.458.116-.163.14-.194c.047-.062.093-.132.147-.194a2.763,2.763,0,0,1,.178-.24l.171-.209.054-.07.116-.147.194-.225.085-.093h0l.14-.163.163-.178.466-.489.186-.178.295-.279.194-.178.225-.2.155-.124.147-.132.31-.248.155-.124c.256-.194.52-.388.776-.574l.163-.109.163-.109.155-.093a2.239,2.239,0,0,1,.225-.147l.109-.062.171-.1c.217-.132.442-.256.667-.372l.14-.078.349-.109.171-.085.171-.085.171-.078.178-.078.171-.078.714-.287.171-.062.186-.07.171-.062.147-.047.326-.1.163-.054.14-.039h.132l.233-.062.31-.078c.326-.085.644-.155.97-.209h.512l.233-.039h.14c.31,0,.628-.078.939-.1h2.576l.776.078.334.039.225.039h.5c.326.054.652.124.97.2l.4.1h.109l.163.047.326.1.14.039c.24.078.473.155.706.248l.163.054.209.085.318.124.365.155.14.07.194.085.171.085.171.085.217.109.171.093.4.209.163.1c.194.109.388.225.574.349l.155.093.163.109.163.109h0a.549.549,0,0,1,.109.078q.341.233.675.489l.155.124.31.248.147.132.155.124.225.2.194.178.295.279.186.178.186-.178.287-.279.194-.178.233-.2.147-.124.155-.132.31-.248.155-.124c.256-.194.52-.388.776-.574l.163-.109.163-.109.147-.093.233-.147.109-.062.171-.1c.217-.132.442-.256.667-.372a.774.774,0,0,0,.132-.078l.209-.1.171-.085.178-.085.171-.078.178-.078.171-.078.706-.287.178-.062.186-.07.171-.062.14-.047.326-.1.171-.054.132-.039h.132l.24-.062.31-.078c.318-.085.644-.155.97-.209h.5l.24-.039h.14c.31,0,.621-.078.939-.1h2.6l.776.078.341.039.225.039h.5c.326.054.644.124.97.2l.388.1h.109l.171.047.326.1.14.039c.241.078.473.155.706.248l.163.054.209.085.318.124.357.155.147.07.194.085.171.085.171.085.217.109.171.093.4.209.163.1c.194.109.388.225.574.349l.155.093.163.109.163.109h0l.109.078.675.489.155.124.31.248.147.132.155.124.194.178a2.13,2.13,0,0,1,.194.178l.116.1h0l.194.178.078.078.109.1.186.194.279.295.163.178.264.3.279.334a12.869,12.869,0,0,1,.9,1.21l.116.171.116.186a1.063,1.063,0,0,1,.1.155c.062.093.116.186.171.279s.1.171.147.248l.093.163.07.124.07.124.093.178c.039.062.07.132.1.194a14.527,14.527,0,0,1,.605,1.327l.078.194q.116.279.209.558l.062.178a1.08,1.08,0,0,0,.078.24l.07.217a.167.167,0,0,0,.039.132l.062.2a2.347,2.347,0,0,1,.062.248c.039.132.07.264.109.4l.047.209.07.3v.124a1.305,1.305,0,0,1,0,.171.9.9,0,0,1,0,.14.456.456,0,0,1,0,.109v.427a1.918,1.918,0,0,1,0,.209c0,.078,0,.163,0,.24a2.213,2.213,0,0,1,0,.225v.489a2.306,2.306,0,0,1,0,.24h0a.929.929,0,0,0,0,.147v.411h0v.264C442.976,296.576,443.333,296.817,443.333,296.987Z" transform="translate(-196.818 -82.588)" opacity="0.1"/>
    <path id="Path_443" data-name="Path 443" d="M433.617,456.236v.272a1.043,1.043,0,0,1,0,.155v.83a.1.1,0,0,1,0,.047v.5l-.07.551a.819.819,0,0,1-.054.357h0v.279a.392.392,0,0,1,0,.093,1.445,1.445,0,0,1-.039.194,1.556,1.556,0,0,1-.039.186v.14a.441.441,0,0,1-.054.24h0l-.047.163-.047.2-.07.241v.062a1.966,1.966,0,0,1-.078.248c-.07.248-.155.5-.241.776l-.085.233a.672.672,0,0,1-.054.132,16.756,16.756,0,0,1-2.265,4.143l-.178.233a17.052,17.052,0,0,1-1.458,1.653l-24.2,24.212L380.421,468.16a17.288,17.288,0,0,1-1.9-2.25,17.7,17.7,0,0,1-.985-1.552,17.067,17.067,0,0,1-2.064-9.736,6.116,6.116,0,0,1,.1-.923c.078-.551.178-1.086.31-1.629a1.243,1.243,0,0,1,.078-.326l.047-.163v-.093l.07-.248h0c.062-.186.116-.372.178-.559l.085-.256c.132-.365.264-.721.419-1.078l-.116-.217.14-.318c.085-.171.163-.341.256-.512v-.039h0l.124-.225.14-.256c.054-.109.116-.217.178-.318l.093-.155.047-.085h0c0-.062.07-.124.109-.186s.093-.14.132-.209l.31-.458c.039-.054.07-.109.109-.155l.14-.194.147-.2.186-.24.163-.209.062-.07.116-.147.194-.225.085-.093h0l.147-.163.225-.194c.147-.163.3-.326.465-.481l.186-.186.287-.279.194-.171.233-.2.147-.132.155-.124c.1-.085.2-.171.31-.248a1.2,1.2,0,0,1,.155-.124c.256-.2.52-.4.776-.574l.163-.109a1.187,1.187,0,0,1,.163-.109l.147-.1.233-.14.109-.07.171-.1c.217-.132.442-.256.667-.372l.132-.07.209-.109.171-.085.178-.078.171-.085.171-.078.178-.078.706-.287.178-.062.186-.07.171-.054.14-.047.326-.109.171-.054.132-.039h.132l.24-.07.31-.078c.318-.078.644-.147.97-.209h.884c.31-.039.621-.07.939-.093h2.576l.776.07.341.047h.721c.326.054.644.124.97.2l.388.109h.109l.171.054.326.093.14.047c.241.07.473.155.706.24l.163.062.209.078.318.132.357.155.147.062.194.093.171.078.171.085.217.109.171.093.4.217.163.093c.194.116.388.225.574.349l.155.1.163.109.163.109h0l.109.07.675.5.155.124.31.248.147.124.155.132.225.2.194.171.287.279.194.186.186-.186.287-.279.194-.171.225-.2.155-.132.147-.124.31-.248.155-.124c.264-.2.528-.4.776-.574l.163-.109.163-.109.155-.1.225-.14.116-.07.163-.1.675-.372.132-.07.209-.109.171-.085.171-.078.178-.085.171-.078.178-.078.706-.287.178-.062.186-.07.171-.054.14-.047.326-.109.171-.054.132-.039h.132l.233-.07.318-.078c.318-.078.644-.147.97-.209h.877l.939-.093h2.576a6.847,6.847,0,0,1,.776.07l.334.047h.729c.326.054.644.124.962.2l.4.109h.109l.171.054.326.093.14.047c.233.07.473.155.706.24l.155.062.209.078.318.132.365.155.14.062.194.093.178.078.171.085.217.109.171.093c.132.07.264.14.388.217l.171.093.574.349.155.1.163.109.155.109h0l.1.07c.233.163.458.326.675.5l.163.124.3.248.155.124.147.132.2.171.194.178.109.109h0l.186.178.085.085.1.1.186.186.287.3.163.171.264.3.279.334a13.963,13.963,0,0,1,.9,1.21l.116.171.116.186.1.163.171.271.147.256.093.155.07.124c0,.039.039.085.062.124s.07.124.1.186.062.124.1.186c.217.435.419.884.605,1.334,0,.062.054.124.077.194l.21.559.054.171a.746.746,0,0,0,.085.241,1.336,1.336,0,0,1,.062.217l.047.14.054.194.07.248c.039.132.07.264.1.4a2.1,2.1,0,0,1,.054.209,2.218,2.218,0,0,0,.062.295v2.374h0v.155a1.08,1.08,0,0,0,0,.155q0,.128,0,.256h0v.264C433.2,455.849,433.625,456.066,433.617,456.236Z" transform="translate(-194.588 -118.299)" fill="#ff6584"/>
    <path id="Path_444" data-name="Path 444" d="M433.7,456.236v.272a1.027,1.027,0,0,1,0,.155v.83a.1.1,0,0,1,0,.047v.5l-.07.551a.819.819,0,0,1-.054.357h0v.279a.389.389,0,0,1,0,.093,1.44,1.44,0,0,1-.039.194,1.55,1.55,0,0,1-.039.186v.14a.441.441,0,0,1-.054.24h0l-.047.163-.047.2-.07.241v.062a1.961,1.961,0,0,1-.078.248c-.07.248-.155.5-.24.776l-.085.233a.684.684,0,0,1-.054.132,16.621,16.621,0,0,0,.473-4.151,16.83,16.83,0,0,0-.582-4.306,17.2,17.2,0,0,0-7.355-10.008c-.31-.194-.62-.38-.939-.551a17.122,17.122,0,0,0-16.478,0,24.346,24.346,0,0,0-4.065,2.909,17.355,17.355,0,0,0-2.095-1.784h0a17.792,17.792,0,0,0-1.769-1.117,17.137,17.137,0,0,0-18.922,1.621,18.328,18.328,0,0,0-1.427,1.28,16.884,16.884,0,0,0-1.877,2.227,15.818,15.818,0,0,0-.939,1.482h0a16.127,16.127,0,0,0-.729,1.466c-.124.272-.24.551-.341.83a1.243,1.243,0,0,1,.078-.326l.047-.163v-.093l.07-.248h0c.062-.186.116-.372.178-.558l.085-.256c.132-.365.264-.721.419-1.078l.07-.178.14-.318.256-.512v-.039h0l.124-.225.14-.256c.054-.109.116-.217.178-.318l.093-.155.047-.085h0c0-.062.07-.124.109-.186s.093-.14.132-.209l.31-.458c.039-.054.07-.109.109-.155l.14-.194.147-.2.186-.24.163-.209.062-.07.116-.147.194-.225.085-.093h0l.147-.163.225-.194c.147-.163.3-.326.466-.481l.186-.186.287-.279.194-.171.233-.2.147-.132.155-.124c.1-.085.2-.171.31-.248a1.194,1.194,0,0,1,.155-.124c.256-.2.52-.4.776-.574l.163-.109a1.19,1.19,0,0,1,.163-.109l.147-.1.233-.14.109-.07.171-.1c.217-.132.442-.256.667-.372l.132-.07.209-.109.171-.085.178-.078.171-.085.171-.078.178-.078.706-.287.178-.062.186-.07.171-.054.14-.047.326-.109.171-.054.132-.039h.132l.24-.07.31-.078c.318-.078.644-.147.97-.209h.884c.31-.039.621-.07.939-.093h2.576l.776.07.341.047h.721c.326.054.644.124.97.2l.388.109h.109l.171.054.326.093.14.047c.24.07.473.155.706.24l.163.062.209.078.318.132.357.155.147.062.194.093.171.078.171.085.217.109.171.093.4.217.163.093c.194.116.388.225.574.349l.155.1.163.109.163.109h0l.109.07.675.5.155.124.31.248.147.124.155.132.225.2.194.171.287.279.194.186.186-.186.287-.279.194-.171.225-.2.155-.132.147-.124.31-.248.155-.124c.264-.2.528-.4.776-.574l.163-.109.163-.109.155-.1.225-.14.116-.07.163-.1.675-.372.132-.07.209-.109.171-.085.171-.078.178-.085.171-.078.178-.078.706-.287.178-.062.186-.07.171-.054.14-.047.326-.109.171-.054.132-.039h.132l.233-.07.318-.078c.318-.078.644-.147.97-.209h.877l.939-.093h2.576a6.847,6.847,0,0,1,.776.07l.334.047h.729c.326.054.644.124.962.2l.4.109h.109l.171.054.326.093.14.047c.233.07.473.155.706.24l.155.062.209.078.318.132.365.155.14.062.194.093.178.078.171.085.217.109.171.093c.132.07.264.14.388.217l.171.093.574.349.155.1.163.109.155.109h0l.1.07c.233.163.458.326.675.5l.163.124.3.248.155.124.147.132.2.171.194.178.109.109h0l.186.178.085.085.1.1.186.186.287.3.163.171.264.3.279.334a13.982,13.982,0,0,1,.9,1.21l.116.171.116.186.1.163.171.271.148.256.093.155.07.124c0,.039.039.085.062.124s.07.124.1.186.062.124.1.186c.217.435.419.884.605,1.334,0,.062.054.124.078.194l.209.559.054.171a.749.749,0,0,0,.085.241,1.324,1.324,0,0,1,.062.217l.047.14.054.194.07.248c.039.132.07.264.1.4a2.052,2.052,0,0,1,.054.209,2.241,2.241,0,0,0,.062.295v2.374h0v.155a1.08,1.08,0,0,0,0,.155v.256h0v.264C433.282,455.849,433.708,456.066,433.7,456.236Z" transform="translate(-194.672 -118.299)" opacity="0.1"/>
    <path id="Path_445" data-name="Path 445" d="M521.69,355.375v.194a.45.45,0,0,1,0,.1v.815a1.219,1.219,0,0,1,0,.155l-.047.388-.047.248h0v.124a.275.275,0,0,1,0,.077v.427c0,.057,0,.114,0,.171h0v.109a.213.213,0,0,1-.039.147l-.047.171v.039l-.047.178c-.054.178-.116.357-.178.528s0,.116-.054.171l-.039.093a12.235,12.235,0,0,1-1.6,2.925l-.132.163a11.178,11.178,0,0,1-1.024,1.171l-17.106,17.106-17.106-17.106a12.133,12.133,0,0,1-3.5-9.581,4.933,4.933,0,0,1,.078-.659,11.4,11.4,0,0,1,.217-1.14,1.26,1.26,0,0,1,.054-.233.639.639,0,0,0,0-.116v-.07l.047-.171h0c.039-.14.085-.272.124-.4l.062-.186c.093-.256.186-.5.295-.776l.07-.147c0-.078.062-.147.1-.225l.171-.357h0a1.637,1.637,0,0,0,.085-.163l.1-.178a2.127,2.127,0,0,1,.132-.225.5.5,0,0,1,.062-.109v-.062h0l.085-.124.093-.147.217-.326.078-.116.093-.132.109-.147.132-.163a1.091,1.091,0,0,1,.116-.147l.039-.054.085-.1c.047-.054.085-.109.132-.155l.062-.07h0l.1-.109.116-.132.326-.341.132-.132.209-.194a1,1,0,0,0,.132-.124l.163-.14.109-.093.109-.085.217-.178.109-.085.559-.411.116-.078.116-.07.109-.07.155-.1.085-.047.116-.07c.155-.093.31-.186.473-.264l.093-.054.147-.078.124-.054.124-.062.116-.054.124-.054.124-.054.5-.2.124-.047.132-.047.116-.047h.1l.233-.078h.3l.171-.047.217-.054c.233-.062.458-.109.69-.147h.621c.217,0,.442-.054.659-.07h1.839l.528.054h.753c.225.039.458.085.683.14l.279.078h.194l.233.062h.093l.5.171.109.047.147.054.225.093.256.109.1.047.14.062.124.062.116.054.155.078.116.07.279.147.116.07.411.248.109.07.109.07.116.078h0l.078.054c.163.109.318.225.473.349l.109.085.225.178.1.085.109.093.163.14.14.124a2.383,2.383,0,0,0,.2.194l.132.132.132-.132a2.4,2.4,0,0,0,.2-.194l.14-.124.163-.14.109-.093.1-.085.225-.178.109-.085c.178-.14.365-.279.559-.411l.116-.078.109-.07.109-.07.163-.1.078-.047.116-.07c.163-.093.318-.186.481-.264l.093-.054.147-.078.116-.054.124-.062.124-.054.124-.054.124-.054.5-.2.124-.047.132-.047.124-.047h.1l.225-.078h.31l.163-.047.225-.054c.225-.062.458-.109.683-.147h.628c.217,0,.434-.054.659-.07h1.839l.528.054h.753l.675.14.279.078h.2l.225.062h.1l.5.171.116.047.147.054.225.093.256.109.1.047.132.062.124.062.124.054.147.078.124.07.279.147.116.07c.14.078.272.163.4.248l.109.07.116.07.116.078h0l.07.054c.163.109.326.225.481.349l.109.085a2.4,2.4,0,0,1,.217.178l.109.085.109.093.14.124.14.124.078.078h0l.132.132.054.054.078.07.132.14.2.209.109.124.186.209.2.24c.225.272.434.559.636.853l.078.116c0,.047.054.093.085.132l.07.116c.039.062.085.124.124.194l.1.178a.764.764,0,0,1,.062.109l.054.085.047.093.07.132.07.132c.155.3.295.621.427.939l.054.14c.054.132.1.256.147.4a.7.7,0,0,1,.039.116.192.192,0,0,0,.062.171l.047.155a.7.7,0,0,0,0,.1.194.194,0,0,0,.039.14l.047.171a1.254,1.254,0,0,0,.078.279c.023.093,0,.1,0,.155l.047.209v.209a.383.383,0,0,0,0,.093v.7a1.134,1.134,0,0,1,0,.163V354a1.207,1.207,0,0,0,0,.171.323.323,0,0,0,0,.085v.171h0a.548.548,0,0,1,0,.109.5.5,0,0,1,0,.109,1.481,1.481,0,0,1,0,.186h0a1.481,1.481,0,0,1,0,.186Z" transform="translate(-218.192 -96.825)" fill="#ff6584"/>
    <path id="Path_446" data-name="Path 446" d="M521.81,355.362v.194a.457.457,0,0,1,0,.1v.815a1.219,1.219,0,0,1,0,.155l-.047.388-.047.248h0v.124a.279.279,0,0,1,0,.077v.427q0,.085,0,.171h0v.109a.213.213,0,0,1-.039.147l-.047.171v.039l-.047.178c-.054.178-.116.357-.178.528s0,.116-.054.171l-.039.093a12.075,12.075,0,0,0,.334-2.932,12.341,12.341,0,0,0-.411-3.049,12.133,12.133,0,0,0-3.1-5.431,12.3,12.3,0,0,0-2.071-1.66c-.217-.132-.435-.264-.659-.388a12.125,12.125,0,0,0-11.637,0,13.471,13.471,0,0,0-1.148.714,12.757,12.757,0,0,0-1.552,1.334,12.414,12.414,0,0,0-1.474-1.257h0a10.671,10.671,0,0,0-1.257-.776,12.126,12.126,0,0,0-11.637,0,11.809,11.809,0,0,0-1.715,1.148,12.28,12.28,0,0,0-1.008.9,12.692,12.692,0,0,0-1.334,1.552c-.241.341-.458.69-.659,1.047h0a10.911,10.911,0,0,0-.52,1.04c-.085.194-.163.388-.24.59a1.265,1.265,0,0,1,.054-.233.639.639,0,0,0,0-.116v-.07l.047-.171h0c.039-.14.085-.272.124-.4l.062-.186c.093-.256.186-.5.295-.776l.07-.147c0-.078.062-.147.1-.225l.171-.357h0a1.661,1.661,0,0,0,.085-.163l.1-.178a2.114,2.114,0,0,1,.132-.225.5.5,0,0,1,.062-.109v-.062h0l.085-.124.093-.147.217-.326L483,348.2l.093-.132.109-.147.132-.163a1.09,1.09,0,0,1,.116-.147l.039-.054.085-.1c.047-.054.085-.109.132-.155l.062-.07h0l.1-.109.116-.132.326-.341.132-.132.209-.194a1,1,0,0,0,.132-.124l.163-.14.109-.093.109-.085.217-.178.109-.085.559-.411.116-.078.116-.07.109-.07.155-.1.085-.047.116-.07c.155-.093.31-.186.473-.264l.093-.054.147-.078.124-.054.124-.062.116-.054.124-.054.124-.054.5-.2.124-.047.132-.047.116-.047h.1l.233-.077h.3l.171-.047.217-.054c.233-.062.458-.109.69-.147h.621c.217,0,.442-.054.659-.07h1.839l.527.054h.753c.225.039.458.085.683.14l.279.078h.194l.233.062h.093l.5.171.109.047.147.054.225.093.256.109.1.047.14.062.124.062.116.054.155.078.116.07.279.147.116.07.411.248.109.07.109.07.116.078h0l.078.054c.163.109.318.225.473.349l.109.085.225.178.1.085.109.093.163.14.14.124a2.379,2.379,0,0,0,.2.194l.132.132.132-.132a2.416,2.416,0,0,0,.2-.194l.14-.124.163-.14.109-.093.1-.085.225-.178.109-.085c.178-.14.365-.279.559-.411l.116-.078.109-.07.109-.07.163-.1.078-.047.116-.07c.163-.093.318-.186.481-.264l.093-.054.147-.078.116-.054.124-.062.124-.054.124-.054.124-.054.5-.2.124-.047.132-.047.124-.047h.1l.225-.078h.31l.163-.047.225-.054c.225-.062.458-.109.683-.147h.628c.217,0,.434-.054.659-.07h1.839l.528.054h.752l.675.14.279.077h.2l.225.062h.1l.5.171.116.047.147.054.225.093.256.109.1.047.132.062.124.062.124.054.147.078.124.07.279.147.116.07c.14.078.271.163.4.248l.109.07.116.07.116.077h0l.07.054c.163.109.326.225.481.349l.109.085a2.442,2.442,0,0,1,.217.178l.109.085.108.093.14.124.14.124.078.078h0l.132.132.055.054.077.07.132.14.2.209.109.124.186.209.2.24c.225.272.435.559.636.853l.078.116c0,.047.054.093.085.132l.07.116c.039.062.085.124.124.194l.1.178a.764.764,0,0,1,.062.109l.054.085.047.093.07.132.07.132c.155.3.295.621.427.939l.054.14c.054.132.1.256.147.4a.687.687,0,0,1,.039.116.192.192,0,0,0,.062.171l.047.155a.7.7,0,0,0,0,.1.194.194,0,0,0,.039.14l.047.171a1.253,1.253,0,0,0,.078.279c.023.093,0,.1,0,.155l.047.209v.209a.389.389,0,0,0,0,.093v.7a1.17,1.17,0,0,1,0,.163v.085a1.171,1.171,0,0,0,0,.171.312.312,0,0,0,0,.085v.171h0a.539.539,0,0,1,0,.109.505.505,0,0,1,0,.109,1.5,1.5,0,0,1,0,.186h0a1.48,1.48,0,0,1,0,.186Z" transform="translate(-218.312 -96.811)" opacity="0.1"/>
    <path id="Path_447" data-name="Path 447" d="M757.713,439.835v.194a.547.547,0,0,1,0,.109v.31a1.873,1.873,0,0,0,0,.209v.295a1.029,1.029,0,0,1,0,.155l-.047.388v.256h0v.124a.233.233,0,0,1,0,.078v.07a1.012,1.012,0,0,1,0,.132v.4h0a.65.65,0,0,0,0,.116v.14l-.047.171v.047a1.457,1.457,0,0,0-.054.171c-.054.179-.109.357-.171.535a1.388,1.388,0,0,0-.062.163l-.039.093a12.1,12.1,0,0,1-1.6,2.925l-.124.163a12.226,12.226,0,0,1-1.032,1.171l-17.106,17.106-17.067-17.106a11.232,11.232,0,0,1-1.342-1.59,11.088,11.088,0,0,1-.7-1.109,12.11,12.11,0,0,1-1.458-6.881,3.106,3.106,0,0,1,.07-.652,11.484,11.484,0,0,1,.217-1.148.333.333,0,0,1,.062-.233.662.662,0,0,1,0-.116.223.223,0,0,1,0-.07l.047-.171h0a1.556,1.556,0,0,1,.124-.4,1.725,1.725,0,0,0,.062-.186c.093-.256.194-.5.295-.776l.07-.155a.632.632,0,0,1,.1-.225c.039-.078.116-.24.178-.357h0l.078-.163.1-.178c.047-.078.085-.155.132-.225a.788.788,0,0,1,.062-.109v-.062h0c0-.047.054-.093.085-.132l.093-.147.217-.326.077-.109.1-.14.1-.14.132-.171.116-.147v-.054l.085-.1.132-.155.062-.07h0l.1-.116.117-.124c.108-.116.217-.233.334-.341a1.054,1.054,0,0,1,.132-.132,2.4,2.4,0,0,1,.2-.194l.14-.124a1.4,1.4,0,0,1,.155-.147l.109-.093.109-.085.217-.178.109-.085c.186-.14.372-.279.558-.4l.116-.077.116-.078.109-.07.163-.1.077-.047.116-.07.473-.264.093-.054.147-.07.124-.062.124-.054.124-.062.116-.054.124-.054.5-.2.124-.047.132-.047.117-.039.1-.039.233-.07h.3l.171-.047.217-.054c.233-.054.458-.109.691-.147h.621l.667-.07h1.831l.535.054h.745a6.668,6.668,0,0,1,.683.147l.279.07h.194l.233.07h.1l.5.171h.109l.147.054.225.093.256.109.1.047.14.07.124.054.116.062.155.078.124.062.272.155.124.062.4.248.109.07.116.078.109.078h0l.077.054.473.349.116.085.217.178.109.085.1.093.163.147.14.124.2.194a1.068,1.068,0,0,1,.132.132c.047-.047.085-.093.132-.132l.21-.194a.986.986,0,0,1,.132-.124l.163-.147.109-.093.109-.085.217-.178.109-.085c.186-.14.372-.279.558-.4l.116-.078.116-.078.109-.07.155-.1.085-.047.117-.07.473-.264.093-.054.147-.07.124-.062.116-.054.124-.062.124-.054.124-.054.5-.2.124-.047.132-.047.124-.039.1-.039.233-.07h.3l.171-.047.217-.054c.225-.054.458-.109.683-.147h.629l.659-.07h1.839l.527.054h.753c.225.039.458.085.683.147l.279.07h.194l.225.07h.1l.5.171h.116l.147.054.225.093.256.109.1.047.14.07.116.054.124.062.155.078.116.062.279.155.116.062c.14.078.272.163.4.248l.108.07.117.078.116.078h0l.078.054.473.349.109.085.217.178.109.085.109.093.14.124.14.124a.758.758,0,0,0,.078.078h0c0,.047.085.085.132.132l.062.054.07.078.132.132.2.209.108.124a2.468,2.468,0,0,1,.186.217l.2.233c.225.279.434.559.636.853,0,.039.054.078.078.124l.085.124.07.116c.047.062.085.132.124.194l.1.178.07.109.047.093.047.085.07.132.07.132c.155.31.3.621.427.939a1.046,1.046,0,0,1,.054.14c.054.132.1.264.148.4l.047.124a1.324,1.324,0,0,0,.054.163l.047.155v.241l.047.171a1.311,1.311,0,0,0,.078.287c.023.093,0,.093,0,.147l.047.209v1.676h0a.435.435,0,0,0,0,.1v.109a1.566,1.566,0,0,1,0,.186h0a1.567,1.567,0,0,1,0,.186Z" transform="translate(-271.136 -115.746)" fill="#ff6584"/>
    <path id="Path_448" data-name="Path 448" d="M757.818,439.839v.194a.566.566,0,0,1,0,.109v.31a1.844,1.844,0,0,0,0,.209v.295a1.1,1.1,0,0,1,0,.155l-.047.388v.256h0v.124a.226.226,0,0,1,0,.078v.07a1.081,1.081,0,0,1,0,.132v.4h0a.639.639,0,0,0,0,.116q0,.07,0,.14l-.047.171v.047a1.486,1.486,0,0,0-.055.171c-.054.179-.108.357-.17.535a1.361,1.361,0,0,0-.062.163L757.4,444a12.073,12.073,0,0,0-5.275-13.018c-.217-.14-.435-.272-.659-.4a12.126,12.126,0,0,0-11.637,0,11.888,11.888,0,0,0-1.148.722,12.146,12.146,0,0,0-1.552,1.334,11.875,11.875,0,0,0-1.474-1.265h0a14.08,14.08,0,0,0-1.249-.776,12.141,12.141,0,0,0-11.637,0,12.448,12.448,0,0,0-1.714,1.148,11.1,11.1,0,0,0-1.009.908,11.44,11.44,0,0,0-1.326,1.552,10.073,10.073,0,0,0-.667,1.055h0c-.194.341-.365.69-.52,1.04-.085.194-.163.388-.241.59a.333.333,0,0,1,.062-.233.65.65,0,0,1,0-.116.227.227,0,0,1,0-.07l.047-.171h0a1.559,1.559,0,0,1,.124-.4,1.712,1.712,0,0,0,.062-.186c.093-.256.194-.5.295-.776l.07-.155a.633.633,0,0,1,.1-.225c.039-.078.116-.24.178-.357h0l.078-.163.1-.178c.047-.078.085-.155.132-.225a.748.748,0,0,1,.062-.109v-.062h0c0-.047.054-.093.085-.132l.093-.147.217-.326.077-.109.1-.14.1-.14.132-.171.116-.147V432.1l.085-.1.132-.155.062-.07h0l.1-.116.116-.124c.109-.116.217-.233.334-.341a1.065,1.065,0,0,1,.132-.132,2.393,2.393,0,0,1,.2-.194l.14-.124a1.376,1.376,0,0,1,.155-.147l.108-.093.109-.085.217-.178.109-.085c.186-.14.372-.279.559-.4l.116-.078.116-.077.109-.07.163-.1.078-.047.116-.07.473-.264.093-.054.148-.07.124-.062.124-.054.124-.062.116-.054.124-.054.5-.2.124-.047.132-.047.116-.039.1-.039.233-.07h.3l.171-.047.217-.054c.233-.054.458-.109.69-.147h.621l.667-.07h1.831l.535.054h.745a6.66,6.66,0,0,1,.683.147l.279.07h.194l.233.07h.1l.5.171h.109l.147.054.225.093.256.109.1.047.14.07.124.054.116.062.155.078.124.062.272.155.124.062.4.248.109.07.116.078.109.078h0l.078.054.473.349.116.085.217.178.109.085.1.093.163.147.14.124.2.194a1.066,1.066,0,0,1,.132.132c.046-.047.085-.093.132-.132l.21-.194a.991.991,0,0,1,.132-.124l.163-.147.109-.093.108-.085.217-.178.109-.085c.186-.14.373-.279.559-.4l.116-.078.116-.078.109-.07.155-.1.085-.047.116-.07.473-.264.093-.054.147-.07.124-.062.116-.054.124-.062.124-.054.124-.054.5-.2.124-.047.132-.047.124-.039.1-.039.233-.07h.3l.171-.047.217-.054c.225-.054.458-.109.683-.147h.628l.659-.07h1.839l.528.054h.753c.225.039.458.085.683.147l.279.07h.194l.225.07h.1l.5.171h.116l.148.054.225.093.256.109.1.047.14.07.117.054.124.062.155.078.116.062.279.155.116.062c.14.078.272.163.4.248l.108.07.117.078.116.078h0l.078.054.473.349.109.085.217.178.109.085.109.093.14.124.14.124a.734.734,0,0,0,.077.078h0c0,.047.085.085.132.132l.062.054.07.078.132.132.2.209.109.124a2.493,2.493,0,0,1,.186.217l.2.233c.225.279.434.559.636.853,0,.039.054.078.077.124l.085.124.07.116c.047.062.085.132.124.194l.1.178.07.109.047.093.047.085.07.132.07.132c.155.31.3.621.427.939a1.05,1.05,0,0,1,.054.14c.054.132.1.264.147.4l.047.124a1.341,1.341,0,0,0,.054.163l.047.155v.241l.047.171a1.316,1.316,0,0,0,.078.287c.023.093,0,.093,0,.147l.047.209V438.8h0a.449.449,0,0,0,0,.1v.109a1.445,1.445,0,0,1,0,.186h0a1.446,1.446,0,0,1,0,.186Z" transform="translate(-271.241 -115.75)" opacity="0.1"/>
    <path id="Path_449" data-name="Path 449" d="M655.759,392.941h0a89.193,89.193,0,0,0-7.882-7.1c.334-4.158,1.109-14.112,1.179-16.028.078-2.428-3.5-5.531-11.148-8.394s-5.43,10.489-5.322,11.691,1.777,4.841,4.655,6.036c1.032.427,1.311.962,1.241,1.466l-.24-.039c-6.292-.776-9.131-2.234-9.131-2.234s-2.327,6.982-2.327,10.334v.528a3.987,3.987,0,0,0,.186,1.8h.535a5.839,5.839,0,0,1-.427,2.653h0a20.519,20.519,0,0,1-.776,1.908,53.385,53.385,0,0,1-.365-5.749c.124-1.862-2.839-9.426-2.839-9.426s-1.233-.5-3.825-3.476-4.655-4.22-6.416-4.841-8.146-8.929-10.776-10.861c-2.095-1.552-2.94-.636-3.2-.2l-.155.109c-1.218-1.691-2.087-3.3-2.087-4.453,0-.846.085-2.583.24-4.787a20.155,20.155,0,0,1,2.545,2.327c1.784,1.978,3.1,4.337,5.05,6.16a8.224,8.224,0,0,0,5.57,2.436,5.143,5.143,0,0,0,2.017-.318c2.591-1,4.259-4.158,6.982-4.282,2.141.109,3.716,2.087,5.469,3.39a7.331,7.331,0,0,0,4.507,1.552,5.136,5.136,0,0,0,1.9-.3c2.017-.776,3.4-3.235,2.475-5.182-1.427-3.01-6.284-2.327-8.355-4.95a2.048,2.048,0,0,1-.481-1.924,1.342,1.342,0,0,1,1.257-.915,4.375,4.375,0,0,1,2.6,1.241c1.009,1.024,2.327,2.327,3.576,2.188a1.7,1.7,0,0,0,1.016-.194c.039-.923.085-1.846.124-2.77a9.66,9.66,0,0,0,4.313,1.226,5.048,5.048,0,0,0,.838-.039c1.637-.217,3.2-1.738,3.01-3.32a3.763,3.763,0,0,0,2.583.861,3.523,3.523,0,0,0,1.241-.155,3.755,3.755,0,0,0,2.513-3.227c.124-1.722-.939-3.274-1.963-4.655l-5.074-6.936a2.808,2.808,0,0,1-.776-2,4.166,4.166,0,0,1,.869-1.552c1.381-2.017.706-4.973-1.055-6.672a9.407,9.407,0,0,0-6.765-2.242c-1.839.039-3.879.349-5.361-.7a6.109,6.109,0,0,1-2.095-3.654c-1.078-4.081-1.141-8.363-1.893-12.514s-2.374-8.417-5.741-10.946a5.314,5.314,0,0,0-2.661-1.164,18.861,18.861,0,0,0-2.467.2c-2.793.155-5.283-1.769-7.044-3.957s-3.1-4.732-5.128-6.649c-2.987-3-7.929-3.879-11.9-2.754-1.815.5-3.258,1.978-5.136,2.056-2.754.124-5.741-.5-8.487-.776a23.447,23.447,0,0,0-7.758.171,8.254,8.254,0,0,0-5.431,4.026l-.659-5.593s-1.365-10.551-1.978-11.412a2.845,2.845,0,0,1,.078-2.49l.124.116c.093-.279.194-.566.295-.853a2.033,2.033,0,0,0,0-.652c.241-2.118-3.607-15.6-3.607-15.6h-3.46a2.775,2.775,0,0,0-.085-.5c-1.008-5.485-2.707-14.057-3.879-16.121a9.615,9.615,0,0,1-.7-5.213,41.812,41.812,0,0,0,.163-6.152,16.833,16.833,0,0,1,.14-2.963,4.158,4.158,0,0,0-1.652-3.879c-4.538-3.367-15.57-11.032-22.025-11.226-8.27-.248,2.591,14.267,2.467,15.632s8.27,2.607,8.27,2.607.5,4.213.993,6.571c.341,1.637.915,13.778,1.241,21.063a23.131,23.131,0,0,1-5.562-2.087s-9.628-2.6-10.5,0,11.73,15.136,11.73,15.136,4.445,11.784,3.1,15.516S535.9,298.2,535.9,298.2s.124,20.946,1.047,26.3-1.668,8.309-1.668,8.309-1.109,13.15,0,14.391a38.412,38.412,0,0,1,3.041,4.88l.326.59c-3.646,4.453-7.269,8.712-9.17,9.31-3.7,1.117-29,11.637-29,11.637s-8.262,7.9-9.511,7.9,7.525,8.441,7.525,8.441,7.9,6.323,8.766,7.316,22.5,12.777,22.5,12.777,3.708,1.117,4.073,2.234,5.306,4.213,5.306,4.213,3.786,4.376,4.779,7.168a1.674,1.674,0,0,0,.054.535c.047.776.1,1.133.147.947.659,1.815,5.1,6.447,2.963,9.752-.993,1.552,0,4.337,1.916,6.586-.52,2.777-1.241,5.943-2.017,6.982-1.482,1.986-.822,4.794-2.327,5.128s-1.978,7.611-1.978,7.611l-1.28,16.036s-.333,3.3-2.141,4.135,0,5.291,0,5.291-1.939,3.8-.776,5.95-2.327,12.079-2.327,12.079-1.482,19.185,0,21.831a21.725,21.725,0,0,1,2.327,8.433c0,1.652.822,32.583.822,32.583s-1.978,12.568-2.638,14.88,1.815,7.448.171,10.085-1.319,8.6-1.319,8.6-2.467,23.32-.985,31.924-.473,10.419-.473,10.419a17.635,17.635,0,0,0,3.2,1.412c.039.326.078.675.116,1.032.776,7.215,1.916,19.643.877,22.5s-1.334,8.239-1.435,11.3v.5h0l-2.878,4.655s-.574,4.1-1.319,4.763-6.928,11.885-7.758,13.328l-.085.155s-6.253,11.5,9.216,11.823,13.491-7.6,13.491-7.6.047-1.552.194-3.452c.186-2.327.527-5.159,1.125-5.9a82.866,82.866,0,0,0,4.2-7.525v-9.108H552a1.6,1.6,0,0,1,.054-.5,34.353,34.353,0,0,1,.861-5.625c.489-1.156-1.07-8.107-1.07-8.107s.341-13.367,1.87-21.815c.07-.372.14-.737.209-1.086a26.376,26.376,0,0,0,3.328-1.738s0-16.866,1.978-19.845,1.56-11.412,1.56-11.412.489-7.44,1.97-8.929,1.133-8.107,1.133-8.107,1.311-4.3,2.793-7.758,2.327-13.227,2.327-13.227a16.779,16.779,0,0,1,2.327-4.8c1.653-2.327,0-7.44,0-7.44a9.06,9.06,0,0,1-.652-6.618c1.156-3.313,7.564-30.1,7.564-30.1l2.475-9.589,3.615,12.234s-.489,8.766,0,11.249,3.949,7.758,3.949,7.758v25.966s.334,17.533,1.652,20.341,1.971,13.235,1.971,13.235,4.445,30.6,1.645,35.058a26.778,26.778,0,0,0,4.546,2.49v18.022s-3.227,10.908-2.126,18.332a2.915,2.915,0,0,0,.07.442c-.295.217-.621.4-.822.326l.52,12.413s.14,6.889-1.179,10.512a14.948,14.948,0,0,0-.776,3.941c-.287,4.911,1.606,11.637,12.413,10.939,14.391-.915,12.172-10.085,12.172-10.085s0-.357-.054-.985a37.381,37.381,0,0,0-3.569-13.483c-3.452-6.78-2.956-15.221-2.956-15.221a5.317,5.317,0,0,1-.877.233,2.23,2.23,0,0,1,.039-.5c.186-2.327.473-5.345.776-6.757.489-2.483,0-8.262,0-8.262l1.854-18.115.1-1.008a14.846,14.846,0,0,0,2.552-1.552h0a18.559,18.559,0,0,1-.954-5.043,4.453,4.453,0,0,1,.954-3.189c2.141-2.149,3.615-29.108,3.615-29.108s1.164-9.488,1.171-12.692v-.574c-.132-1.932-1.156-9.5-1.14-13.91a8.746,8.746,0,0,1,.318-2.762c.985-2.483,2.327-49.123,2.327-49.123l1.645-20.667V488.107a100.126,100.126,0,0,0-2.946-24.127c4.49,2.35,12.178,7.641,13.582,6.229,1.73-1.738,2.591-31.513,2.095-34.484a3.126,3.126,0,0,0-.116-.605c-.116-.543-.287-1.272-.5-2.118l.683-1.187c3.375-5.842,8.534-15.12,8.945-17.843.465-3.1,1.078-11.164,2.242-14.693a6.817,6.817,0,0,1,.334-.83h0c.3-.613.628-.946,1-.853,2.1.5,3.46,2.11,4.57,1.489a.538.538,0,0,0,.147-.124h0a1.852,1.852,0,0,0,.279-.4h0a3.9,3.9,0,0,0,.256-.566h0c.077-.2.147-.427.217-.667v-.07a1.46,1.46,0,0,1,.077-.3.5.5,0,0,0,0-.1,1.084,1.084,0,0,1,.062-.264l.047-.194v-.1c.194-.877.341-1.784.435-2.42a3.2,3.2,0,0,1,.078-.574v-.31Z" transform="translate(-220.47 -65.213)" fill="url(#linear-gradient)"/>
    <path id="Path_450" data-name="Path 450" d="M559.431,490.379a2.637,2.637,0,0,0-.171-1.389C559.314,490.107,559.376,490.619,559.431,490.379Z" transform="translate(-235.809 -129.463)" fill="url(#linear-gradient-2)"/>
    <path id="Path_451" data-name="Path 451" d="M678,430.338s2.932-2,.07-3.181-4.546-4.81-4.655-6-2.327-14.476,5.322-11.637,11.226,5.927,11.148,8.348-1.319,17.766-1.319,17.766Z" transform="translate(-261.319 -111.555)" fill="#fbbebe"/>
    <path id="Path_452" data-name="Path 452" d="M694.667,445.861a4.545,4.545,0,0,1-.116.884c-.225,1.552-.776,4.748-1.614,5.206-1.109.621-2.467-.985-4.57-1.482-.372-.085-.7.24-1,.853a7.234,7.234,0,0,0-.334.822c-1.164,3.522-1.776,11.544-2.242,14.631-.419,2.723-5.57,11.963-8.945,17.773-.5.877-.977,1.676-1.381,2.327-.931,1.552-1.552,2.568-1.552,2.568l-8.534-16V449.856a20.967,20.967,0,0,0,1.552-3.266h0a5.766,5.766,0,0,0,.427-2.638,1.349,1.349,0,0,0-.365-.776.933.933,0,0,1-.163-.241,1.233,1.233,0,0,1-.077-.2,2.566,2.566,0,0,1-.109-.605v-.512c0-3.328,2.327-10.287,2.327-10.287s2.84,1.482,9.131,2.219S694.667,445.861,694.667,445.861Z" transform="translate(-259.378 -116.535)" fill="#6c63ff"/>
    <path id="Path_453" data-name="Path 453" d="M694.916,447.039c-.225,1.552-.776,4.748-1.614,5.206-1.109.621-2.467-.985-4.569-1.482-.372-.085-.7.24-1,.853a7.192,7.192,0,0,0-.334.822c-4.243-2.064-11.637-5.8-12.11-6.858s-5.624-1.3-8.534-1.342h-.528a3.934,3.934,0,0,1-.186-1.792c.217-3.468,2.327-9.806,2.327-9.806s2.839,1.482,9.131,2.219C683.434,435.541,693.737,445.844,694.916,447.039Z" transform="translate(-259.743 -116.829)" opacity="0.1"/>
    <path id="Path_454" data-name="Path 454" d="M695.046,445.862s-.621,5.469-1.73,6.082-2.467-.985-4.569-1.474c-.372-.093-.7.233-1,.846-4.181-2.033-11.986-5.943-12.412-7.021s-6.3-1.327-9.061-1.358c-1.016-2.126,2.141-11.637,2.141-11.637s2.839,1.482,9.131,2.227S695.046,445.862,695.046,445.862Z" transform="translate(-259.757 -116.528)" fill="#6c63ff"/>
    <path id="Path_455" data-name="Path 455" d="M665.951,517.575c-1.73,1.73-12.964-6.664-16.043-7.161s-14.275-47.386-14.275-47.386l1.683-26.423-6.563-24.313-.853-3.181s.651-1.939,3.289,0,9.046,10.209,10.776,10.822,3.825,1.862,6.416,4.825,3.825,3.452,3.825,3.452,2.964,7.533,2.839,9.379.993,14.445,2.327,15.555,3.576,11.233,3.576,11.233,4.081,14.22,4.942,18.278a5.767,5.767,0,0,1,.117.605C668.542,486.225,667.681,515.845,665.951,517.575Z" transform="translate(-251.647 -111.36)" fill="#6c63ff"/>
    <path id="Path_456" data-name="Path 456" d="M650.158,473.33l8.146,2.18s1.552,14.073,2.125,14.818,2.56,29.62,2.56,29.62l-12.831-5.8-4.818-15.516V481.46Z" transform="translate(-255.109 -125.952)" opacity="0.1"/>
    <path id="Path_457" data-name="Path 457" d="M568.037,766.935a27.478,27.478,0,0,0-1.172,4.655C565.314,780,565,793.312,565,793.312s1.552,6.912,1.071,8.068a33.86,33.86,0,0,0-.861,5.594c-.132,1.21-.209,2.133-.209,2.133l-15.066-.985s0-.892.047-2.258c.1-3.041.419-8.394,1.435-11.233s-.093-15.237-.877-22.42c-.334-3.1-.605-5.229-.605-5.229S570.574,760.325,568.037,766.935Z" transform="translate(-233.717 -191.124)" fill="#fbbebe"/>
    <path id="Path_458" data-name="Path 458" d="M643.889,770.982,642.034,789s.489,5.756,0,8.223c-.279,1.4-.566,4.4-.776,6.726-.14,1.761-.233,3.15-.233,3.15s-11.521,8.068-14.151.985a12.525,12.525,0,0,1-.652-2.653c-1.1-7.393,2.126-18.247,2.126-18.247V764l15.966,2.607Z" transform="translate(-250.772 -191.122)" fill="#fbbebe"/>
    <path id="Path_459" data-name="Path 459" d="M568.048,766.934a27.5,27.5,0,0,0-1.172,4.655,22.987,22.987,0,0,1-16.292.613c-.334-3.1-.605-5.229-.605-5.229S570.585,760.324,568.048,766.934Z" transform="translate(-233.729 -191.123)" opacity="0.1"/>
    <path id="Path_460" data-name="Path 460" d="M645.026,766.594l-.45,4.368c-5.586,2.56-11.552.993-15.516-.776V763.98Z" transform="translate(-251.459 -191.117)" opacity="0.1"/>
    <path id="Path_461" data-name="Path 461" d="M562.212,506.21s-1.311,9.713-2.793,11.691-.822,4.771-2.327,5.1-1.978,7.572-1.978,7.572l-1.257,15.966s-.334,3.289-2.141,4.112,0,5.268,0,5.268-1.939,3.786-.776,5.927-2.327,12.009-2.327,12.009-1.482,19.092,0,21.722a21.59,21.59,0,0,1,2.327,8.394c0,1.645.822,32.42.822,32.42s-1.978,12.513-2.638,14.818,1.815,7.4.171,10.039-1.319,8.534-1.319,8.534-2.545,23.235-1.063,31.769-.473,10.364-.473,10.364a23.033,23.033,0,0,0,23.181-.985s0-16.788,1.978-19.752,1.652-11.35,1.652-11.35.489-7.409,1.97-8.891,1.133-8.045,1.133-8.045,1.311-4.282,2.793-7.758,2.327-13.189,2.327-13.189a16.6,16.6,0,0,1,2.327-4.779c1.652-2.327,0-7.4,0-7.4a8.991,8.991,0,0,1-.652-6.586c1.156-3.289,7.564-29.953,7.564-29.953l2.475-9.542,3.615,12.18s-.489,8.72,0,11.187,3.949,7.758,3.949,7.758v25.842s.334,17.448,1.652,20.24,1.971,13.189,1.971,13.189,4.445,30.45,1.645,34.911c0,0,12.677,9.046,22.715,1.645,0,0-2.141-6.09,0-8.231s3.615-28.968,3.615-28.968,1.319-10.7,1.156-13.188-1.808-14.15-.822-16.618,2.327-48.875,2.327-48.875l1.645-20.566V557.35a98.89,98.89,0,0,0-3.724-26.951c-2.785-9.814-6.641-21.07-9.884-21.776C623,508.623,571.925,514.278,562.212,506.21Z" transform="translate(-232.935 -133.323)" fill="#3f3d56"/>
    <path id="Path_462" data-name="Path 462" d="M565.205,818.28c-.132,1.21-.209,2.134-.209,2.134l-15.066-.985s0-.892.047-2.258c7.068-6.268,14.112,1.109,14.112,1.109Z" transform="translate(-233.717 -202.477)" opacity="0.1"/>
    <path id="Path_463" data-name="Path 463" d="M562.312,818.946v9.139s-3.1,6.207-4.2,7.487c-.6.729-.939,3.53-1.125,5.865-.148,1.862-.194,3.429-.194,3.429s1.978,7.905-13.491,7.572-9.216-11.769-9.216-11.769l.085-.147c.776-1.443,7.037-12.645,7.758-13.266s1.319-4.74,1.319-4.74l2.878-4.655c7.083-6.331,14.158,1.07,14.158,1.07Z" transform="translate(-229.886 -202.624)" fill="#3f3d56"/>
    <path id="Path_464" data-name="Path 464" d="M556.8,852.123s1.978,7.905-13.491,7.572-9.216-11.738-9.216-11.738l.085-.148c.427,2.327,2.25,4.74,8.061,4.43,7.874-.411,12.676-2.42,14.74-3.514C556.843,850.556,556.8,852.123,556.8,852.123Z" transform="translate(-229.886 -209.913)" opacity="0.1"/>
    <path id="Path_465" data-name="Path 465" d="M641.355,815.058c-.14,1.761-.233,3.15-.233,3.15s-11.521,8.068-14.151.985a12.531,12.531,0,0,1-.652-2.653,6.323,6.323,0,0,0,.652-.558c1.885-2.793,11.924-2.878,12.413-1.552C639.687,815.19,640.641,815.19,641.355,815.058Z" transform="translate(-250.845 -202.242)" opacity="0.1"/>
    <path id="Path_466" data-name="Path 466" d="M635.973,855.061c-10.861.683-12.731-6-12.413-10.861a14.739,14.739,0,0,1,.776-3.918c1.319-3.607,1.179-10.465,1.179-10.465L625,817.474c.411.163,1.4-.822,1.4-.822,1.885-2.793,11.924-2.878,12.413-1.552s2.8.427,2.8.427-.5,8.394,2.956,15.136a37.137,37.137,0,0,1,3.568,13.421c.047.621.054.978.054.978S650.364,854.153,635.973,855.061Z" transform="translate(-250.219 -202.392)" fill="#3f3d56"/>
    <path id="Path_467" data-name="Path 467" d="M635.973,863.671c-10.861.683-12.731-6-12.413-10.861,0,0,2.816,4.787,12.847,3.639a28.155,28.155,0,0,0,11.714-3.778c.047.621.054.978.054.978S650.364,862.763,635.973,863.671Z" transform="translate(-250.219 -211.002)" opacity="0.1"/>
    <g id="Group_2" data-name="Group 2" transform="translate(385.553 375.33)" opacity="0.1">
      <path id="Path_468" data-name="Path 468" d="M650.706,521.439c-2.226-6.362-4.655-11.637-6.858-12.079l-1.963.2c2.048,1.1,4.3,6,6.354,11.877a123.071,123.071,0,0,1,6.749,40.527v12.956L653.344,595.5s-1.319,46.408-2.327,48.875.659,14.151.822,16.625-1.156,13.188-1.156,13.188-1.482,26.827-3.615,28.96,0,8.231,0,8.231a14.74,14.74,0,0,1-7.758,2.863,15.1,15.1,0,0,0,10.248-2.863s-2.141-6.09,0-8.231,3.615-28.96,3.615-28.96,1.319-10.7,1.156-13.188-1.808-14.158-.822-16.625,2.327-48.875,2.327-48.875l1.645-20.574V561.966A123.071,123.071,0,0,0,650.706,521.439Z" transform="translate(-639.31 -509.36)"/>
    </g>
    <g id="Group_3" data-name="Group 3" transform="translate(313.559 372.886)" opacity="0.1">
      <path id="Path_469" data-name="Path 469" d="M549.474,711.935s1.955-1.815.473-10.372.985-31.761.985-31.761-.326-5.927,1.319-8.534-.822-7.758-.171-10.039,2.638-14.818,2.638-14.818-.846-30.791-.846-32.444a21.524,21.524,0,0,0-2.327-8.386c-1.482-2.638,0-21.722,0-21.722s3.452-9.876,2.327-12.009.776-5.927.776-5.927-1.808-4.445,0-5.267,2.141-4.112,2.141-4.112l1.311-15.966s.5-7.238,1.978-7.572.822-3.1,2.327-5.1c1.109-1.482,2.133-7.323,2.568-10.147a10.253,10.253,0,0,1-2.731-1.552s-1.319,9.705-2.8,11.683-.822,4.771-2.327,5.1-1.971,7.572-1.971,7.572l-1.272,15.974s-.334,3.289-2.141,4.112,0,5.268,0,5.268-1.94,3.786-.776,5.927-2.327,12.009-2.327,12.009-1.482,19.092,0,21.722a21.529,21.529,0,0,1,2.327,8.386c0,1.652.822,32.42.822,32.42s-1.978,12.513-2.63,14.817,1.808,7.4.163,10.039-1.319,8.534-1.319,8.534-2.49,23.243-1.009,31.776-.473,10.372-.473,10.372a22.668,22.668,0,0,0,12.211,2.6,22.1,22.1,0,0,1-9.247-2.583Z" transform="translate(-546.51 -506.21)"/>
    </g>
    <path id="Path_470" data-name="Path 470" d="M617.894,307.2c2.04,1.908,3.367,4.445,5.128,6.617s4.251,4.089,7.044,3.941a18.915,18.915,0,0,1,2.467-.209,5.313,5.313,0,0,1,2.661,1.164c3.367,2.514,4.988,6.749,5.741,10.861s.776,8.394,1.893,12.459a6.207,6.207,0,0,0,2.095,3.638c1.513,1.04,3.522.721,5.361.69a9.471,9.471,0,0,1,6.765,2.234c1.761,1.683,2.436,4.655,1.055,6.641a4.041,4.041,0,0,0-.869,1.505,2.777,2.777,0,0,0,.776,1.994l5.074,6.9c1.024,1.381,2.087,2.933,1.963,4.655a3.646,3.646,0,0,1-6.424,2.087c.551,1.715-1.14,3.491-2.925,3.724s-3.522-.566-5.144-1.35l-.132,2.925c-1.489.776-3.064-.776-4.251-1.986s-3.631-1.908-4.2-.326a2.048,2.048,0,0,0,.481,1.924c2.071,2.583,6.928,1.924,8.355,4.918.923,1.939-.458,4.422-2.475,5.159a6.778,6.778,0,0,1-6.067-1.241c-1.73-1.241-3.421-3.406-5.679-3.39-2.816,0-4.5,3.258-7.13,4.275-2.475.946-5.306-.287-7.238-2.1s-3.274-4.166-5.058-6.137c-4.593-5.066-11.552-7.075-18.037-9.24s-13.352-5.112-16.7-11.071c-1.024-1.839-1.676-3.879-2.948-5.562-2.188-2.855-5.865-4.189-8.262-6.866a10.6,10.6,0,0,1-1.621-11.334c1.133-2.4,3.1-4.251,4.724-6.377a21.443,21.443,0,0,0,4.213-12.583,15.944,15.944,0,0,1,.365-5.089,7.923,7.923,0,0,1,5.749-4.732,23.631,23.631,0,0,1,7.758-.178c2.746.248,5.733.869,8.487.776,1.877-.085,3.32-1.552,5.136-2.048C609.966,303.356,614.907,304.209,617.894,307.2Z" transform="translate(-237.911 -87.986)" fill="#3f3d56"/>
    <g id="Group_4" data-name="Group 4" transform="translate(331.061 234.454)" opacity="0.1">
      <path id="Path_471" data-name="Path 471" d="M659.677,332.952c.776,4.135.776,8.394,1.9,12.451a7.856,7.856,0,0,0,1.234,2.8c-.093-.272-.178-.551-.248-.822-1.078-4.065-1.14-8.324-1.893-12.459a22.16,22.16,0,0,0-2.49-7.153A24.625,24.625,0,0,1,659.677,332.952Z" transform="translate(-589.049 -327.77)"/>
      <path id="Path_472" data-name="Path 472" d="M682,366.372a3.985,3.985,0,0,0-.877,1.552,2.76,2.76,0,0,0,.776,1.986c.07.093.132.186.2.272a1.22,1.22,0,0,1,0-.287,4.065,4.065,0,0,1,.877-1.505,5.263,5.263,0,0,0-.473-5.989A4.787,4.787,0,0,1,682,366.372Z" transform="translate(-594.192 -335.534)"/>
      <path id="Path_473" data-name="Path 473" d="M653.347,396.406a4.244,4.244,0,0,1-2.747,4.189,6.777,6.777,0,0,1-6.067-1.249c-1.73-1.249-3.421-3.4-5.671-3.383-2.824,0-4.5,3.258-7.137,4.267-2.475.954-5.306-.287-7.238-2.1s-3.274-4.166-5.05-6.129c-4.593-5.066-11.552-7.083-18.045-9.247s-13.313-5.1-16.672-11.032c.3.659.613,1.311.962,1.939,3.351,5.958,10.209,8.906,16.7,11.071s13.452,4.174,18.045,9.24c1.784,1.971,3.1,4.321,5.05,6.137s4.763,3.049,7.238,2.1c2.638-1.016,4.313-4.251,7.137-4.275,2.25,0,3.879,2.048,5.679,3.39a6.516,6.516,0,0,0,6.059,1.241c2.017-.737,3.406-3.219,2.483-5.159a3.636,3.636,0,0,0-.722-1Z" transform="translate(-572.579 -337.624)"/>
      <path id="Path_474" data-name="Path 474" d="M684.283,384.87a4.246,4.246,0,0,1,.217,1.59,3.654,3.654,0,0,1-6.431,2.095c.551,1.707-1.14,3.483-2.925,3.724s-3.522-.566-5.144-1.35c-.047.97-.085,1.947-.132,2.917-1.49.776-3.1-.776-4.244-1.978s-3.631-1.916-4.2-.326a2.056,2.056,0,0,0,.481,1.916,3.982,3.982,0,0,0,.427.458,1.429,1.429,0,0,1,.077-.4c.574-1.552,3.018-.869,4.2.326s2.754,2.77,4.251,1.986c0-.978.085-1.947.124-2.925a9.762,9.762,0,0,0,5.151,1.35c1.784-.2,3.476-2.009,2.917-3.724a3.654,3.654,0,0,0,6.431-2.087,5.842,5.842,0,0,0-1.2-3.569Z" transform="translate(-589.761 -340.572)"/>
      <path id="Path_475" data-name="Path 475" d="M578.232,362.17c-2.18-2.855-5.865-4.182-8.255-6.866a8.979,8.979,0,0,1-.908-1.195,9.86,9.86,0,0,0,1.893,3.173c2.389,2.676,6.075,4.011,8.255,6.866a10.529,10.529,0,0,1,.83,1.272,17.526,17.526,0,0,0-1.815-3.251Z" transform="translate(-569.07 -333.676)"/>
    </g>
    <path id="Path_476" data-name="Path 476" d="M597.466,362.39s1.808,20.078-6.423,26.16,17.61,22.715,17.61,22.715l19.589-4.282s-9.55-8.883-9.55-12.669,1.645-25.019,4.282-27.486S597.466,362.39,597.466,362.39Z" transform="translate(-242.572 -101.078)" fill="#fbbebe"/>
    <path id="Path_477" data-name="Path 477" d="M578.474,339.55,574,349.333s-6.672,3.957-7.161,4.321-5.8,6.424-5.8,6.424l-13.088,8.394s-.318-.6-.776-1.443a39.083,39.083,0,0,0-3.041-4.857c-1.109-1.234,0-14.313,0-14.313s2.591-2.964,1.668-8.27-1.047-26.168-1.047-26.168-.985-17.533.372-21.233-3.1-15.431-3.1-15.431-12.583-12.506-11.722-15.089,10.5,0,10.5,0,3.825,1.978,5.8,2.1c1.195.07,7.58.1,12.475.109h5.8s4.073,14.189,3.584,15.671c-.1.287-.2.574-.295.853-.4,1.14-.7,2.157-.2,2.847.613.869,1.978,11.358,1.978,11.358l1.358,11.358s2.095,8.883,1.97,10.124-3.212,3.825-1.854,6.168,1.862,9.5,1.862,9.5,2.265,5.252,4.507,7.254A3.8,3.8,0,0,0,578.474,339.55Z" transform="translate(-229.306 -78.238)" fill="#6c63ff"/>
    <circle id="Ellipse_54" data-name="Ellipse 54" cx="23.7" cy="23.7" r="23.7" transform="translate(346.29 227.262)" opacity="0.1"/>
    <circle id="Ellipse_55" data-name="Ellipse 55" cx="23.7" cy="23.7" r="23.7" transform="translate(346.29 226.277)" fill="#fbbebe"/>
    <path id="Path_478" data-name="Path 478" d="M630.477,453.259c-2.141,2.327-2.63,24.825-1.366,26.827s-6.369,5.927-10.814,5.756-16.61,3.623-16.61,3.623-24.368-6.586-29.48-3.289-12.343-5.927-10.2-9.216-2.327-7.9-2.964-9.705a14.5,14.5,0,0,1-.264-2.327h0c-.6-8.285-1.218-34.833-1.218-34.833V399.613l22.389-15.8a107.4,107.4,0,0,1,10.388,6.012A50.881,50.881,0,0,1,597.056,395c6.1,5.764,21.233,11.854,21.233,11.854s16.625,19.915,18.759,21.893S632.61,450.955,630.477,453.259Z" transform="translate(-235.428 -105.881)" fill="#fff"/>
    <path id="Path_479" data-name="Path 479" d="M557.57,435.846V409.64s.683,47.734,1.218,61.039C558.191,462.394,557.57,435.846,557.57,435.846Z" transform="translate(-235.43 -111.672)" opacity="0.1"/>
    <path id="Path_480" data-name="Path 480" d="M559.26,490.86a2.607,2.607,0,0,1,.171,1.381C559.376,492.474,559.314,491.962,559.26,490.86Z" transform="translate(-235.809 -129.882)" opacity="0.1"/>
    <path id="Path_481" data-name="Path 481" d="M590.487,398.294a20.093,20.093,0,0,0-3.576,5.058c-1.233,2.715-29.34.5-29.34.5v-4.236l22.389-15.8a107.4,107.4,0,0,1,10.388,6.012C590.487,394.462,590.487,398.294,590.487,398.294Z" transform="translate(-235.43 -105.881)" opacity="0.1"/>
    <path id="Path_482" data-name="Path 482" d="M559.26,488.31a2.615,2.615,0,0,1,.171,1.381C559.376,489.931,559.314,489.419,559.26,488.31Z" transform="translate(-235.809 -129.31)" opacity="0.1"/>
    <path id="Path_483" data-name="Path 483" d="M583.363,362.238l-4.476,9.783s-6.672,3.957-7.161,4.321-5.8,6.424-5.8,6.424l-13.088,8.394s-.318-.6-.776-1.443c3.561-4.321,7.2-8.922,9.31-10.535,4.2-3.2-.124-3.576,0-4.2s9.263-3.949,11.73-6.292c2.009-1.916,7.6-5.648,9.573-6.982A3.792,3.792,0,0,0,583.363,362.238Z" transform="translate(-234.195 -100.926)" opacity="0.1"/>
    <path id="Path_484" data-name="Path 484" d="M569.643,362.39s-7.812,5.058-10.279,7.4-11.637,5.679-11.73,6.3,4.2.985,0,4.2S533.2,398.55,529.488,399.682s-29,11.637-29,11.637-8.27,7.758-9.5,7.758,7.525,8.394,7.525,8.394,7.9,6.3,8.766,7.285,22.483,12.669,22.483,12.669,3.708,1.109,4.073,2.219,5.306,4.2,5.306,4.2,5.516,6.338,4.981,8.6-1.482-64.391-1.482-64.391,28.107,2.219,29.341-.5a20.1,20.1,0,0,1,3.576-5.058s-.077-22.832-1.652-24.523S569.674,364.485,569.643,362.39Z" transform="translate(-220.475 -101.078)" fill="#6c63ff"/>
    <path id="Path_485" data-name="Path 485" d="M508.2,426.88s7.4,8.022,10.861,9.379a9.349,9.349,0,0,1,4.81,4.942s4.073,2.327,6.3,2.715,5.555,3.7,5.555,3.7,8.27,2.327,8.27,4.073,3.336,4.081,3.336,4.081l-.83-47.4s-13.739,1.722-17.688,7.525S508.2,426.88,508.2,426.88Z" transform="translate(-224.361 -111.387)" opacity="0.1"/>
    <path id="Path_486" data-name="Path 486" d="M529,431.435c.621-.372,17.471-22.079,17.471-22.079l3.1-.636s-8,11.978-7.874,12.964S529,431.435,529,431.435Z" transform="translate(-229.025 -111.466)" opacity="0.1"/>
    <path id="Path_487" data-name="Path 487" d="M538.11,439.876s4.445-10.248,5.679-11.978,7.875-13.328,7.875-13.328a7.812,7.812,0,0,1,0,2.964C551.314,418.643,538.11,439.876,538.11,439.876Z" transform="translate(-231.067 -112.777)" opacity="0.1"/>
    <path id="Path_488" data-name="Path 488" d="M573.831,348.7s-9.876,18.022-9.007,18.891S573.831,348.7,573.831,348.7Z" transform="translate(-237.045 -98.009)" opacity="0.1"/>
    <path id="Path_489" data-name="Path 489" d="M578.755,357.93s-8.146,11.908-7.409,11.753S578.755,357.93,578.755,357.93Z" transform="translate(-238.509 -100.078)" opacity="0.1"/>
    <path id="Path_490" data-name="Path 490" d="M562.15,255.832,546.6,256.941s0-.5-.054-1.373c-.217-5.136-1-23.041-1.42-25.043-.5-2.327-.993-6.54-.993-6.54s-8.394-1.234-8.27-2.591-10.737-15.8-2.467-15.516c6.455.194,17.486,7.82,22.025,11.164a4.143,4.143,0,0,1,1.652,3.832,16.63,16.63,0,0,0-.14,2.948,41.375,41.375,0,0,1-.163,6.121,9.39,9.39,0,0,0,.7,5.19c1.148,2.056,2.847,10.582,3.879,16.036C561.824,253.862,562.15,255.832,562.15,255.832Z" transform="translate(-229.312 -65.986)" fill="#fbbebe"/>
    <path id="Path_491" data-name="Path 491" d="M572.077,281.167l-.295.846c-3.375-3.344-24.515-5.477-24.515-5.477-1.854-2.157-.194-3.1,1.784-5.741,1.156-1.552,8.084-3.755,13.646-5.314h5.8S572.566,279.685,572.077,281.167Z" transform="translate(-232.94 -79.35)" opacity="0.1"/>
    <path id="Path_492" data-name="Path 492" d="M566.849,268.911l-15.555,1.109s0-.5-.054-1.373c2.444-1.435,7.944-3.158,12.529-4.438h2.25C566.523,266.941,566.849,268.911,566.849,268.911Z" transform="translate(-234.011 -79.065)" opacity="0.1"/>
    <path id="Path_493" data-name="Path 493" d="M572.077,280.527c-.1.287-.2.574-.295.853-3.375-3.351-24.515-5.485-24.515-5.485-1.854-2.157-.194-3.1,1.784-5.733,1.156-1.552,8.084-3.763,13.646-5.322h5.8S572.566,279.045,572.077,280.527Z" transform="translate(-232.94 -79.207)" fill="#6c63ff"/>
    <path id="Path_494" data-name="Path 494" d="M596.6,442.57s-1.73,33.2,0,34.81S596.6,442.57,596.6,442.57Z" transform="translate(-244.008 -119.055)" opacity="0.1"/>
    <path id="Path_495" data-name="Path 495" d="M612.49,460.55s-.621,36.54,0,36.9S612.49,460.55,612.49,460.55Z" transform="translate(-247.682 -123.086)" opacity="0.1"/>
    <path id="Path_496" data-name="Path 496" d="M631,466.12s2.327,25.182,4.445,26.167S631,466.12,631,466.12Z" transform="translate(-251.894 -124.335)" opacity="0.1"/>
    <path id="Path_497" data-name="Path 497" d="M667.294,483.288a5.146,5.146,0,0,1-1.978-.776c-2.095-1.358-4.445-15.927-7.525-17.9s-14.2-21.358-14.2-21.358-4.321-7.758-6.051-9.752-.861-10.861-.861-10.861-4.6-5.3-6.548-9.752a8.845,8.845,0,0,1-.853-3.173s.659-1.947,3.289,0,9.046,10.209,10.776,10.822,3.825,1.854,6.424,4.818,3.825,3.46,3.825,3.46,2.963,7.525,2.839,9.379.985,14.438,2.328,15.555,3.576,11.226,3.576,11.226S666.433,479.231,667.294,483.288Z" transform="translate(-251.508 -111.496)" opacity="0.1"/>
    <path id="Path_498" data-name="Path 498" d="M666.05,445.112V444.6a4.836,4.836,0,0,1,.132,1.117A2.564,2.564,0,0,1,666.05,445.112Z" transform="translate(-259.753 -119.51)" opacity="0.1"/>
    <path id="Path_499" data-name="Path 499" d="M675.86,488.946c-.5.877-.977,1.676-1.381,2.327-2.04-2.1-4.337-15.818-7.323-17.727a13.97,13.97,0,0,1-2.715-3.049V454.206a20.946,20.946,0,0,0,1.552-3.266c.365,4.407,1.2,10.939,2.164,11.73,1.357,1.109,3.576,11.233,3.576,11.233S674.386,483.244,675.86,488.946Z" transform="translate(-259.391 -120.932)" opacity="0.1"/>
    <path id="Path_500" data-name="Path 500" d="M667.934,482.649a4.863,4.863,0,0,1-1.978-.776c-2.1-1.358-4.445-15.919-7.533-17.9s-14.189-21.35-14.189-21.35-4.321-7.758-6.051-9.752-.861-10.861-.861-10.861-4.6-5.306-6.548-9.752a8.921,8.921,0,0,1-.853-3.181s.652-1.94,3.289,0,9.046,10.209,10.776,10.822,3.825,1.862,6.416,4.825,3.825,3.452,3.825,3.452,2.964,7.533,2.839,9.379.993,14.445,2.327,15.555,3.576,11.233,3.576,11.233S667.073,478.592,667.934,482.649Z" transform="translate(-251.652 -111.353)" fill="#6c63ff"/>
    <circle id="Ellipse_56" data-name="Ellipse 56" cx="1.668" cy="1.668" r="1.668" transform="translate(389.432 321.855)" fill="#3f3d56"/>
    <circle id="Ellipse_57" data-name="Ellipse 57" cx="1.668" cy="1.668" r="1.668" transform="translate(400.386 336.851)" fill="#3f3d56"/>
    <path id="Path_501" data-name="Path 501" d="M675,455.552s-8.029-3.67-6.8-1.691S675,455.552,675,455.552Z" transform="translate(-260.206 -121.455)" opacity="0.1"/>
    <path id="Path_502" data-name="Path 502" d="M675.074,462.716s-8.154-2.219-6.424-.923S675.074,462.716,675.074,462.716Z" transform="translate(-260.281 -123.274)" opacity="0.1"/>
    <path id="Path_503" data-name="Path 503" d="M673.985,469.832s-5.555-4.019-4.2-2.537A13.061,13.061,0,0,0,673.985,469.832Z" transform="translate(-260.543 -124.525)" opacity="0.1"/>
    <path id="Path_504" data-name="Path 504" d="M681.664,476.14s-5.663,11.14-2.956,11.87S681.664,476.14,681.664,476.14Z" transform="translate(-262.426 -126.582)" opacity="0.1"/>
    <path id="Path_505" data-name="Path 505" d="M575.927,711.77s-13,12.343-9.216,12.18S575.927,711.77,575.927,711.77Z" transform="translate(-237.325 -179.412)" opacity="0.1"/>
    <path id="Path_506" data-name="Path 506" d="M555.24,733.238c.659,0,13.825-1.319,10.365-1.978S555.24,733.238,555.24,733.238Z" transform="translate(-234.908 -183.758)" opacity="0.1"/>
    <path id="Path_507" data-name="Path 507" d="M637.76,709.23s13.964.489,13.662,1.97S637.76,709.23,637.76,709.23Z" transform="translate(-253.41 -178.842)" opacity="0.1"/>
    <path id="Path_508" data-name="Path 508" d="M634.79,716.44s8.06,6.09,9.876,4.112S634.79,716.44,634.79,716.44Z" transform="translate(-252.744 -180.459)" opacity="0.1"/>
    <path id="Path_509" data-name="Path 509" d="M580.616,601.9a4.093,4.093,0,0,1-.512,1.249,1.263,1.263,0,0,1-.357.372c-1.652,1.148-5.927,3.289-6.587,3.1-.3-.078-1.482-.434-2.777-.776-1.513-.442-3.189-.915-3.817-1s-.993-1.086-1.086-2.064,0-1.738.411-1.885a.977.977,0,0,0,.349-.512,6.125,6.125,0,0,0,.217-.69l.062-.233c.217-.9.4-2.04.52-2.979.07-.5.116-.954.155-1.257v-.357h0v-.062l1.086-.054h1.032a63.96,63.96,0,0,1,9.41.093,2.648,2.648,0,0,1,1.714,1.97,9.071,9.071,0,0,1,.388,2.227A9.936,9.936,0,0,1,580.616,601.9Z" transform="translate(-237.197 -153.148)" fill="#fbbebe"/>
    <path id="Path_510" data-name="Path 510" d="M651.035,608.6a1.135,1.135,0,0,0,0,.163c0,1.683-.116,2.956-.116,3.165,0,.652-17.114,5.268-21.389,4.934-2.808-.217-.722-2.141.846-4.127a6.506,6.506,0,0,0,1.241-2.1,1.552,1.552,0,0,0,0-.846c-.085-.31-.163-.59-.217-.846h0c-.4-1.777-.2-2.327.217-2.762a3.291,3.291,0,0,0,.566-1.063,4.251,4.251,0,0,0,.24-1.1,3.336,3.336,0,0,0-.628-2.382c-1.319-1.753,4.942-2.692,4.942-2.692h11.893c1.164,0,1.784,1.645,2.094,3.77a.227.227,0,0,0,0,.07c.085.621.155,1.28.194,1.955s.07,1.272.078,1.893S651.035,607.97,651.035,608.6Z" transform="translate(-251.255 -154.114)" fill="#fbbebe"/>
    <path id="Path_511" data-name="Path 511" d="M587.209,673.888s-13.188,3.1-11.846,2.327c.5-.318.621-1.389.574-2.6a17.271,17.271,0,0,0-.155-1.792c-.171-1.373-.419-2.521-.419-2.521s6.912-1.482,9.379-.822a2.94,2.94,0,0,1,1.854,1.986,2.8,2.8,0,0,1,.1.271A11.286,11.286,0,0,1,587.209,673.888Z" transform="translate(-239.398 -169.668)" fill="#fbbebe"/>
    <path id="Path_512" data-name="Path 512" d="M600.235,333.6a57.039,57.039,0,0,0,5.136-2.506,7.057,7.057,0,0,1,5.524-.543,8.812,8.812,0,0,1,2.42,1.7c1.552,1.373,3.1,2.746,4.562,4.212a26.8,26.8,0,0,0,4.756,4.244c4.073,2.49,9.247,1.932,13.964,1.187a8.606,8.606,0,0,0,2.754-.776c2.071-1.133,2.87-3.879,2.382-6.168a13.817,13.817,0,0,0-3.546-6.043A49.647,49.647,0,0,0,622,316.925c-6.532-3-14.306-4.5-20.822-1.482a22.587,22.587,0,0,0-5.431,3.708c-2.265,2.017-8.123,7.145-6.827,10.613C590.344,333.667,596.861,334.729,600.235,333.6Z" transform="translate(-242.417 -90.182)" opacity="0.1"/>
    <path id="Path_513" data-name="Path 513" d="M600.235,332.958a54.98,54.98,0,0,0,5.136-2.506,7.091,7.091,0,0,1,5.524-.543,9.16,9.16,0,0,1,2.42,1.7c1.552,1.373,3.1,2.746,4.562,4.213a26.5,26.5,0,0,0,4.756,4.244c4.073,2.49,9.247,1.932,13.964,1.187a8.412,8.412,0,0,0,2.754-.776c2.071-1.125,2.87-3.879,2.382-6.168a13.817,13.817,0,0,0-3.546-6.043A49.534,49.534,0,0,0,622,316.294c-6.532-3-14.306-4.5-20.822-1.49a22.81,22.81,0,0,0-5.431,3.708c-2.265,2.017-8.122,7.153-6.827,10.621C590.344,333.036,596.861,334.1,600.235,332.958Z" transform="translate(-242.417 -90.041)" fill="#3f3d56"/>
    <path id="Path_514" data-name="Path 514" d="M639.358,343.595a8.324,8.324,0,0,1-2.747.776c-4.717.776-9.883,1.3-13.964-1.187a26.8,26.8,0,0,1-4.779-4.282c-1.459-1.474-3.018-2.839-4.562-4.212a9.016,9.016,0,0,0-2.42-1.707,7.077,7.077,0,0,0-5.532.551,54.9,54.9,0,0,1-5.128,2.506c-3.375,1.133-9.891.07-11.35-3.817a2.906,2.906,0,0,1-.147-.582,3.22,3.22,0,0,0,.147,1.552c1.458,3.879,7.975,4.95,11.35,3.817a55.843,55.843,0,0,0,5.128-2.506,7.071,7.071,0,0,1,5.532-.543,8.813,8.813,0,0,1,2.42,1.7c1.552,1.373,3.1,2.746,4.562,4.213a26.81,26.81,0,0,0,4.755,4.244c4.073,2.49,9.24,1.932,13.964,1.187a8.533,8.533,0,0,0,2.746-.776,5.513,5.513,0,0,0,2.506-5.322A5.213,5.213,0,0,1,639.358,343.595Z" transform="translate(-242.409 -94.184)" opacity="0.1"/>
    <path id="Path_515" data-name="Path 515" d="M567.611,595.484a32.066,32.066,0,0,1-.861,4.414,36.867,36.867,0,0,0,.776-4.469Z" transform="translate(-237.489 -153.327)" opacity="0.1"/>
    <path id="Path_516" data-name="Path 516" d="M579.748,603.552c-1.653,1.148-5.927,3.289-6.587,3.1s-5.431-1.645-6.594-1.808-1.466-3.623-.675-3.949a.977.977,0,0,0,.349-.512,6.693,6.693,0,0,1-.279.691,3.434,3.434,0,0,0,.776,3.623l6.843,1.769,6.447-3.522c1.552-2.133-.186-7.052-1.071-7.851s-11.458,0-11.458,0l-.233-.225h0v-.062l1.086-.054h1.032a63.966,63.966,0,0,1,9.41.093C581.393,595.321,581.393,602.4,579.748,603.552Z" transform="translate(-237.198 -153.148)" opacity="0.1"/>
    <path id="Path_517" data-name="Path 517" d="M648.652,598.92H636.759s-6.261.939-4.942,2.692a3.977,3.977,0,0,1-.178,4.546c-.473.5-.675,1.156,0,3.623s-6.393,6.75-2.118,7.075,21.389-4.282,21.389-4.934S651.832,598.92,648.652,598.92Zm1.606,12.77c0,.621-16.129,4.957-20.171,4.655s2.63-4.337,1.994-6.664-.45-2.948,0-3.413a3.751,3.751,0,0,0,.171-4.29c-1.241-1.652,4.655-2.537,4.655-2.537h11.21C651.126,599.432,650.258,611.069,650.258,611.69Z" transform="translate(-251.252 -154.11)" opacity="0.1"/>
    <path id="Path_518" data-name="Path 518" d="M584.742,668.451c-2.467-.659-9.379.822-9.379.822s1.319,6.09,0,6.912,11.854-2.327,11.854-2.327S587.217,669.111,584.742,668.451Zm-9.178,7.6c1.272-.776,0-6.68,0-6.68s6.68-1.428,9.061-.776,2.382,5.244,2.382,5.244-12.723,3-11.443,2.211Z" transform="translate(-239.399 -169.661)" opacity="0.1"/>
    <path id="Path_519" data-name="Path 519" d="M651.974,608.287l-19.6,2.327h0l19.527-4.2C651.935,607.023,651.967,607.643,651.974,608.287Z" transform="translate(-252.201 -155.789)" opacity="0.1"/>
    <path id="Path_520" data-name="Path 520" d="M489.81,584.353l20.365-4.383.434,1.909Z" transform="translate(-109.82 -129.993)" fill="#3f3d56"/>
    <path id="Path_521" data-name="Path 521" d="M651.675,611.39a1.192,1.192,0,0,0,0,.163L631,615.525a6.51,6.51,0,0,0,1.241-2.1Z" transform="translate(-251.894 -156.906)" opacity="0.1"/>
    <path id="Path_522" data-name="Path 522" d="M485.81,587.487l24.825-2.607-24.166,4.647Z" transform="translate(-108.923 -131.094)" fill="#3f3d56"/>
    <path id="Path_523" data-name="Path 523" d="M651.922,603.78l-18.3,1.3a4.247,4.247,0,0,1-.24,1.1l18.549-2.327Z" transform="translate(-252.428 -155.199)" opacity="0.1"/>
    <path id="Path_524" data-name="Path 524" d="M489.72,578.9l20.8-1.482-21.109,2.653Z" transform="translate(-109.73 -129.421)" fill="#3f3d56"/>
    <path id="Path_525" data-name="Path 525" d="M581.174,599.563l-14.344.466c.217-.9.4-2.04.52-2.979l13.437.287a9.071,9.071,0,0,1,.388,2.227Z" transform="translate(-237.507 -153.691)" opacity="0.1"/>
    <path id="Path_526" data-name="Path 526" d="M423.12,570.76l19.565.411-2.389,2.087-17.176.551Z" transform="translate(-94.867 -127.928)" fill="#3f3d56"/>
    <path id="Path_527" data-name="Path 527" d="M580.626,604a4.1,4.1,0,0,1-.512,1.249l-9.721,2.692c-1.513-.442-3.188-.915-3.817-1s-.993-1.086-1.086-2.064Z" transform="translate(-237.206 -155.249)" opacity="0.1"/>
    <path id="Path_528" data-name="Path 528" d="M419.81,578.747,442.6,577.42l-20.9,5.788Z" transform="translate(-94.125 -129.421)" fill="#3f3d56"/>
    <path id="Path_529" data-name="Path 529" d="M586.845,671.331l-10.76,2.878a17.252,17.252,0,0,0-.155-1.792c3-.4,8.006-1.016,10.815-1.358A2.8,2.8,0,0,1,586.845,671.331Z" transform="translate(-239.547 -170.284)" opacity="0.1"/>
    <path id="Path_530" data-name="Path 530" d="M572.74,672.06c.411-.163,15.392-1.97,15.392-1.97L572.74,674.2Z" transform="translate(-238.832 -170.067)" fill="#3f3d56"/>
    <circle id="Ellipse_58" data-name="Ellipse 58" cx="16.78" cy="16.78" r="16.78" transform="translate(560.448 57.201)" fill="#6c63ff"/>
    <circle id="Ellipse_59" data-name="Ellipse 59" cx="13.196" cy="13.196" r="13.196" transform="translate(638.516 101.894)" fill="#6c63ff"/>
    <circle id="Ellipse_60" data-name="Ellipse 60" cx="16.78" cy="16.78" r="16.78" transform="translate(560.448 57.201)" opacity="0.4"/>
    <circle id="Ellipse_61" data-name="Ellipse 61" cx="13.196" cy="13.196" r="13.196" transform="translate(638.516 101.894)" opacity="0.4"/>
    <circle id="Ellipse_62" data-name="Ellipse 62" cx="42.351" cy="42.351" r="42.351" transform="translate(59.743 72.74)" fill="#6c63ff"/>
    <circle id="Ellipse_63" data-name="Ellipse 63" cx="42.351" cy="42.351" r="42.351" transform="translate(59.743 72.74)" opacity="0.4"/>
    <circle id="Ellipse_64" data-name="Ellipse 64" cx="4.655" cy="4.655" r="4.655" transform="translate(643.163 51.506)" fill="#6c63ff"/>
    <circle id="Ellipse_65" data-name="Ellipse 65" cx="4.655" cy="4.655" r="4.655" transform="translate(643.163 51.506)" opacity="0.4"/>
    <path id="Path_531" data-name="Path 531" d="M457.165,788s4.825,6.307-2.227,15.834S442.076,821.4,444.427,827.34c0,0,10.636-17.688,19.294-17.936S466.669,798.644,457.165,788Z" transform="translate(-209.944 -196.503)" fill="#6c63ff"/>
    <path id="Path_532" data-name="Path 532" d="M457.244,788a7.76,7.76,0,0,1,.985,1.978c8.448,9.93,12.948,19.193,4.833,19.395-7.564.209-16.641,13.739-18.813,17.153a7.119,7.119,0,0,0,.256.776s10.636-17.688,19.294-17.936S466.748,798.644,457.244,788Z" transform="translate(-210.023 -196.503)" opacity="0.1"/>
    <path id="Path_533" data-name="Path 533" d="M472.209,797.968c0,2.219-.248,4.019-.559,4.019s-.551-1.8-.551-4.019.31-1.179.613-1.179S472.209,795.741,472.209,797.968Z" transform="translate(-216.043 -198.418)" fill="#ffd037"/>
    <path id="Path_534" data-name="Path 534" d="M475.4,801.351c-1.947,1.063-3.654,1.707-3.794,1.435s1.311-1.35,3.258-2.413,1.179-.287,1.327,0S477.34,800.288,475.4,801.351Z" transform="translate(-216.155 -199.155)" fill="#ffd037"/>
    <path id="Path_535" data-name="Path 535" d="M425,788s-4.825,6.307,2.227,15.834S440.091,821.4,437.74,827.34c0,0-10.636-17.688-19.294-17.936S415.475,798.644,425,788Z" transform="translate(-203.28 -196.503)" fill="#6c63ff"/>
    <path id="Path_536" data-name="Path 536" d="M425,788a7.761,7.761,0,0,0-.985,1.978c-8.448,9.93-12.948,19.193-4.833,19.395,7.564.209,16.641,13.739,18.813,17.153a7.106,7.106,0,0,1-.256.776s-10.636-17.688-19.294-17.936S415.475,798.644,425,788Z" transform="translate(-203.28 -196.503)" opacity="0.1"/>
    <path id="Path_537" data-name="Path 537" d="M416.57,797.968c0,2.219.248,4.019.559,4.019s.551-1.8.551-4.019-.31-1.179-.613-1.179S416.57,795.741,416.57,797.968Z" transform="translate(-203.817 -198.418)" fill="#ffd037"/>
    <path id="Path_538" data-name="Path 538" d="M412.258,801.351c1.947,1.063,3.646,1.707,3.794,1.435s-1.311-1.35-3.258-2.413-1.179-.287-1.327,0S410.311,800.288,412.258,801.351Z" transform="translate(-202.585 -199.155)" fill="#ffd037"/>
    <path id="Path_539" data-name="Path 539" d="M418.55,835.543s13.483-.411,17.548-3.313,20.753-6.346,21.761-1.707,20.264,23.088,5.035,23.212-35.376-2.374-39.434-4.841S418.55,835.543,418.55,835.543Z" transform="translate(-204.261 -205.528)" fill="#a8a8a8"/>
    <path id="Path_540" data-name="Path 540" d="M463.166,854.2c-15.221.124-35.376-2.374-39.434-4.841-3.1-1.885-4.321-8.642-4.732-11.753h-.45s.853,10.861,4.911,13.351,24.212,4.965,39.434,4.841c4.4,0,5.919-1.6,5.834-3.918C468.115,853.32,466.44,854.2,463.166,854.2Z" transform="translate(-204.261 -207.626)" opacity="0.2"/>
    <path id="Path_541" data-name="Path 541" d="M813.559,823.187s-8.619-29.271,1.614-50.814a46.23,46.23,0,0,0,3.739-29.007,77.826,77.826,0,0,0-4.1-13.615" transform="translate(-292.064 -183.443)" fill="none" stroke="#535461" stroke-miterlimit="10" stroke-width="2"/>
    <path id="Path_542" data-name="Path 542" d="M820.6,710.386c0,3.592-6.493,13.964-6.493,13.964s-6.5-10.4-6.5-13.964a6.5,6.5,0,0,1,12.994,0Z" transform="translate(-291.491 -177.694)" fill="#6c63ff"/>
    <path id="Path_543" data-name="Path 543" d="M834.427,734.922c-1.947,3.01-13.057,8.208-13.057,8.208s.2-12.258,2.149-15.268a6.5,6.5,0,1,1,10.907,7.06Z" transform="translate(-294.576 -182.354)" fill="#6c63ff"/>
    <path id="Path_544" data-name="Path 544" d="M833.135,778.035c-3.2,1.614-15.415.5-15.415.5s6.369-10.481,9.565-12.1a6.512,6.512,0,0,1,5.85,11.637Z" transform="translate(-293.758 -191.511)" fill="#6c63ff"/>
    <path id="Path_545" data-name="Path 545" d="M825.312,811.213c-2.886,2.133-15.112,3.1-15.112,3.1s4.5-11.4,7.386-13.538a6.5,6.5,0,1,1,7.758,10.442Z" transform="translate(-292.072 -199.08)" fill="#6c63ff"/>
    <path id="Path_546" data-name="Path 546" d="M803.222,746.076c2.576,2.5,14.562,5.089,14.562,5.089s-2.94-11.909-5.508-14.406a6.493,6.493,0,1,0-9.054,9.31Z" transform="translate(-290.066 -184.602)" fill="#6c63ff"/>
    <path id="Path_547" data-name="Path 547" d="M794.016,784.469c3.2,1.614,15.415.5,15.415.5s-6.362-10.481-9.565-12.1a6.5,6.5,0,0,0-5.849,11.606Z" transform="translate(-287.68 -192.972)" fill="#6c63ff"/>
    <path id="Path_548" data-name="Path 548" d="M790.9,823.451c2.878,2.133,15.1,3.1,15.1,3.1s-4.5-11.412-7.386-13.545a6.507,6.507,0,1,0-7.758,10.45Z" transform="translate(-287.146 -201.822)" fill="#6c63ff"/>
    <path id="Path_549" data-name="Path 549" d="M820.6,710.386c0,3.592-6.493,13.964-6.493,13.964s-6.5-10.4-6.5-13.964a6.5,6.5,0,0,1,12.994,0Z" transform="translate(-291.491 -177.694)" fill="#6c63ff"/>
    <path id="Path_550" data-name="Path 550" d="M834.427,734.922c-1.947,3.01-13.057,8.208-13.057,8.208s.2-12.258,2.149-15.268a6.5,6.5,0,1,1,10.907,7.06Z" transform="translate(-294.576 -182.354)" fill="#6c63ff"/>
    <path id="Path_551" data-name="Path 551" d="M833.135,778.035c-3.2,1.614-15.415.5-15.415.5s6.369-10.481,9.565-12.1a6.512,6.512,0,0,1,5.85,11.637Z" transform="translate(-293.758 -191.511)" fill="#6c63ff"/>
    <path id="Path_552" data-name="Path 552" d="M825.312,811.213c-2.886,2.133-15.112,3.1-15.112,3.1s4.5-11.4,7.386-13.538a6.5,6.5,0,1,1,7.758,10.442Z" transform="translate(-292.072 -199.08)" fill="#6c63ff"/>
    <path id="Path_553" data-name="Path 553" d="M803.222,746.076c2.576,2.5,14.562,5.089,14.562,5.089s-2.94-11.909-5.508-14.406a6.493,6.493,0,1,0-9.054,9.31Z" transform="translate(-290.066 -184.602)" fill="#6c63ff"/>
    <path id="Path_554" data-name="Path 554" d="M794.016,784.469c3.2,1.614,15.415.5,15.415.5s-6.362-10.481-9.565-12.1a6.5,6.5,0,0,0-5.849,11.606Z" transform="translate(-287.68 -192.972)" fill="#6c63ff"/>
    <path id="Path_555" data-name="Path 555" d="M790.9,823.451c2.878,2.133,15.1,3.1,15.1,3.1s-4.5-11.412-7.386-13.545a6.507,6.507,0,1,0-7.758,10.45Z" transform="translate(-287.146 -201.822)" fill="#6c63ff"/>
    <path id="Path_556" data-name="Path 556" d="M788.27,844.852s10.5-2.087,13.3-4.864,15.4-7.642,16.8-4.166,18.891,15.283,6.982,17.37-28,2.777-31.5,1.389S788.27,844.852,788.27,844.852Z" transform="translate(-287.155 -206.954)" fill="#a8a8a8"/>
    <path id="Path_557" data-name="Path 557" d="M825.368,854.827c-11.9,2.087-28,2.785-31.5,1.4-2.661-1.063-4.515-6.144-5.252-8.534l-.349.07s2.1,8.34,5.6,9.728,19.6.7,31.5-1.389c3.429-.605,4.414-2.017,4.042-3.8C829.115,853.485,827.921,854.385,825.368,854.827Z" transform="translate(-287.155 -209.886)" opacity="0.2"/>
    <path id="Path_558" data-name="Path 558" d="M294.7,106.445v.279a.887.887,0,0,0,0,.147c0,.124,0,.24,0,.365v.465a.1.1,0,0,1,0,.047v.5l-.07.543a1.808,1.808,0,0,1-.062.357h0a1.415,1.415,0,0,0,0,.178v.109a.392.392,0,0,1,0,.093.324.324,0,0,1-.039.186c-.039.062,0,.124-.039.186s0,.093,0,.14a2.414,2.414,0,0,1-.054.24h0a1.234,1.234,0,0,1-.039.163,1.922,1.922,0,0,1-.054.2.914.914,0,0,1-.062.241.187.187,0,0,0,0,.062.766.766,0,0,1-.078.248c-.07.248-.155.5-.24.776,0,.078-.062.155-.085.233a.848.848,0,0,1-.054.132,16.873,16.873,0,0,1-2.265,4.143l-.178.233a17.178,17.178,0,0,1-1.458,1.66l-24.445,24.236-24.2-24.2a17.249,17.249,0,0,1-1.9-2.258,16.678,16.678,0,0,1-.985-1.552,17.154,17.154,0,0,1-2.071-9.728,6.339,6.339,0,0,1,.109-.931q.116-.776.3-1.629a1.136,1.136,0,0,1,.085-.318l.047-.171v-.093l.07-.248h0c.054-.186.116-.372.178-.559s.054-.171.085-.256c.124-.365.264-.721.419-1.078l.093-.209.14-.318.248-.512h0c0-.078.078-.155.124-.233a2.072,2.072,0,0,1,.14-.256c.054-.109.116-.209.178-.318a1.554,1.554,0,0,0,.085-.155.318.318,0,0,0,.054-.085h0l.116-.186c.047-.07.085-.14.132-.2l.31-.465.109-.155.14-.194.147-.2.186-.24.163-.2.062-.078.116-.14a2.694,2.694,0,0,1,.194-.225,1.125,1.125,0,0,1,.078-.1h0l.14-.163.171-.178c.147-.163.3-.326.465-.481l.186-.186.287-.272.194-.178.233-.2.147-.132.155-.124.3-.248.155-.124c.264-.2.527-.4.776-.574l.155-.109.163-.109.155-.1.225-.14.116-.07.163-.1c.225-.124.45-.256.675-.372l.132-.07.209-.109.171-.078.178-.085.171-.085.171-.078.178-.078c.233-.1.473-.194.706-.279l.178-.07.186-.07.171-.054.14-.047.326-.109.264-.178.132-.039h.132l.24-.07.31-.078c.318-.078.644-.147.97-.209h.884c.31,0,.621-.07.939-.093h2.6c.256,0,.5.047.776.07l.341.047h.721c.326.062.644.132.962.209l.4.1h.109l.171.047.326.093.14.047.706.24.155.062.21.078.326.132.357.155.14.062.2.093.171.085.171.078.217.116.171.085.4.217.163.093.574.349.155.1.163.109.155.109h0l.109.07.675.5.155.124.3.248.155.124.147.132.233.2.194.178.287.272.186.186.194-.186c.093-.093.186-.186.287-.272a2.126,2.126,0,0,1,.194-.178l.225-.2.155-.132.147-.124.31-.248.155-.124c.264-.2.527-.4.776-.574l.163-.109.163-.109.155-.1.225-.14.116-.07.163-.1c.225-.124.45-.256.675-.372l.132-.07.209-.109.171-.078.171-.085.178-.085.171-.078.178-.078c.233-.1.465-.194.706-.279l.171-.07.194-.07.171-.054.14-.047.326-.109.163-.047.14-.039h.132l.233-.07.31-.078q.489-.116.977-.209h.877c.31,0,.628-.07.939-.093h2.6l.776.07.333.047h.729c.318.062.644.132.962.209l.4.1h.109l.171.047.326.093.14.047.706.24.155.062.209.078.318.132.365.155.14.062.194.093.171.085.178.078.209.116.171.085.4.217.171.093.574.349.147.1.163.109.171.124h0l.1.07c.233.163.458.326.675.5a1.206,1.206,0,0,1,.155.124c.109.078.209.163.31.248l.155.124.147.132.2.171.194.178.109.109h0l.186.178.085.085.1.1.186.186.287.3a1.708,1.708,0,0,1,.155.178c.093.093.178.194.272.295l.279.334a13.9,13.9,0,0,1,.892,1.21,1.169,1.169,0,0,1,.163.132,1.455,1.455,0,0,1,.124.178l.1.163.171.272.147.256.085.155.07.124.07.124.1.186.093.186c.225.434.427.884.613,1.334l.078.194c.07.186.14.372.2.559a1.556,1.556,0,0,1,.062.171.873.873,0,0,0,.078.24l.07.217.047.14a.793.793,0,0,0,.054.194l.07.248c.039.132.07.272.1.4s.039.14.054.209.039.194.062.295a.767.767,0,0,0,0,.132v2.242h0a197.217,197.217,0,0,1,0,.31v.256h0v.264Z" transform="translate(-163.389 -39.865)" fill="#ff6584"/>
    <path id="Path_559" data-name="Path 559" d="M294.839,106.445v.279a.887.887,0,0,0,0,.147c0,.124,0,.24,0,.365v.465a.1.1,0,0,1,0,.047v.5l-.07.543a1.8,1.8,0,0,1-.062.357h0a1.427,1.427,0,0,0,0,.178v.109a.386.386,0,0,1,0,.093.325.325,0,0,1-.039.186c-.039.062,0,.124-.039.186s0,.093,0,.14a2.432,2.432,0,0,1-.054.24h0a1.238,1.238,0,0,1-.039.163,1.953,1.953,0,0,1-.054.2.917.917,0,0,1-.062.241.184.184,0,0,0,0,.062.767.767,0,0,1-.078.248c-.07.248-.155.5-.241.776,0,.078-.062.155-.085.233a.857.857,0,0,1-.054.132,17.068,17.068,0,0,0-4.538-16.113A17.353,17.353,0,0,0,286.5,93.9c-.31-.194-.621-.38-.939-.551a17.067,17.067,0,0,0-18.332,1.016,16.435,16.435,0,0,0-2.234,1.885,18.762,18.762,0,0,0-2.095-1.784h0a17.773,17.773,0,0,0-1.769-1.117,17.137,17.137,0,0,0-16.486,0,17.719,17.719,0,0,0-2.436,1.621,17.353,17.353,0,0,0-3.3,3.507c-.341.481-.659.978-.946,1.482h0a16.109,16.109,0,0,0-.729,1.466c-.124.272-.241.551-.349.83a1.136,1.136,0,0,1,.085-.318l.047-.171v-.093l.07-.248h0c.054-.186.116-.372.178-.559s.054-.171.085-.256c.124-.365.264-.721.419-1.078l.093-.209.14-.318.248-.512h0c0-.078.078-.155.124-.233a2.073,2.073,0,0,1,.14-.256c.054-.109.116-.209.178-.318a1.548,1.548,0,0,0,.085-.155.318.318,0,0,0,.054-.085h0l.116-.186c.047-.07.085-.14.132-.2l.31-.465.109-.155.14-.194.147-.2.186-.241.163-.2.062-.078.116-.14a2.694,2.694,0,0,1,.194-.225,1.141,1.141,0,0,1,.078-.1h0l.14-.163.171-.178c.147-.163.3-.326.465-.481l.186-.186.287-.272.194-.178.233-.2.147-.132.155-.124.3-.248.155-.124c.264-.2.528-.4.776-.574l.155-.109.163-.109.155-.1.225-.14.116-.07.163-.1c.225-.124.45-.256.675-.372l.132-.07.209-.109.171-.078.178-.085.171-.085.171-.078.178-.078c.233-.1.473-.194.706-.279l.178-.07.186-.07.171-.054.14-.047.326-.109.248-.124.132-.039h.132l.241-.07.31-.078c.318-.078.644-.147.97-.209h.884c.31,0,.621-.07.939-.093h2.6c.256,0,.5.047.776.07l.341.047h.722c.326.062.644.132.962.209l.4.1h.109l.171.047.326.093.14.047.706.24.155.062.209.078.326.132.357.155.14.062.2.093.171.085.171.078.217.116.171.085.4.217.163.093.574.349.155.1.163.109.155.109h0l.109.07.675.5.155.124.3.248.155.124.147.132.233.2.194.178.287.272.186.186.194-.186c.093-.093.186-.186.287-.272a2.118,2.118,0,0,1,.194-.178l.225-.2.155-.132.147-.124.31-.248.155-.124c.264-.2.528-.4.776-.574l.163-.109.163-.109.155-.1.225-.14.116-.07.163-.1c.225-.124.45-.256.675-.372l.132-.07.209-.109.171-.078.171-.085.178-.085.171-.078.178-.078c.233-.1.465-.194.706-.279l.171-.07.194-.07.171-.054.14-.047.326-.109.163-.047.14-.039h.132l.233-.07.31-.078q.489-.116.977-.209h.877c.31,0,.628-.07.939-.093h2.6l.776.07.334.047h.729c.318.062.644.132.962.209l.4.1h.109l.171.047.326.093.14.047.706.24.155.062.209.078.318.132.365.155.14.062.194.093.171.085.178.078.209.116.171.085.4.217.171.093.574.349.147.1.163.109.171.124h0l.1.07c.233.163.458.326.675.5a1.206,1.206,0,0,1,.155.124c.109.078.209.163.31.248l.155.124.147.132.2.171.194.178.109.109h0l.186.178.085.085.1.1.186.186.287.3a1.7,1.7,0,0,1,.155.178c.093.093.178.194.272.295L291,95.5a13.908,13.908,0,0,1,.892,1.21,1.169,1.169,0,0,1,.163.132,1.452,1.452,0,0,1,.124.178l.1.163.171.272.147.256.085.155.07.124.07.124.1.186.093.186c.225.434.427.884.613,1.334l.078.194c.07.186.14.372.2.559a1.568,1.568,0,0,1,.062.171.872.872,0,0,0,.078.24l.07.217.047.14a.8.8,0,0,0,.054.194l.07.248c.039.132.07.272.1.4s.039.14.054.209.039.194.062.295a.78.78,0,0,0,0,.132v2.242h0a197.217,197.217,0,0,1,0,.31v.256h0v.264Z" transform="translate(-163.53 -39.865)" opacity="0.1"/>
  </g>
</svg>
