<svg id="GPS_Icon" data-name="GPS Icon" xmlns="http://www.w3.org/2000/svg" width="70" height="70" viewBox="0 0 70 70">
  <rect id="bg" width="70" height="70" fill="none"/>
  <path id="path" d="M44.737,27.97A18.958,18.958,0,0,1,27.97,44.737v2.335a2.122,2.122,0,0,1-4.245,0V44.737A18.571,18.571,0,0,1,6.957,27.97H4.622a2.122,2.122,0,1,1,0-4.245H6.957A18.571,18.571,0,0,1,23.725,6.957V4.622a2.122,2.122,0,1,1,4.245,0V6.957A18.958,18.958,0,0,1,44.737,23.725h2.335a2.122,2.122,0,0,1,0,4.245ZM25.847,40.7A14.857,14.857,0,1,0,10.99,25.847,14.766,14.766,0,0,0,25.847,40.7Zm0-6.367a8.49,8.49,0,1,1,8.49-8.49,8.515,8.515,0,0,1-8.49,8.49Zm0-4.245A4.245,4.245,0,1,0,21.6,25.847a4.257,4.257,0,0,0,4.245,4.245Z" transform="translate(9.116 9.116)" fill="#454f63"/>
</svg>
