<svg xmlns="http://www.w3.org/2000/svg" width="61.192" height="61.192" viewBox="0 0 61.192 61.192">
  <g id="False_Sign" data-name="False Sign" transform="translate(0)">
    <path id="Exclusion_1" data-name="Exclusion 1" d="M-6005.4-3674.808a30.4,30.4,0,0,1-21.634-8.962A30.4,30.4,0,0,1-6036-3705.4a30.391,30.391,0,0,1,8.961-21.633A30.4,30.4,0,0,1-6005.4-3736a30.391,30.391,0,0,1,21.635,8.962,30.4,30.4,0,0,1,8.962,21.633,30.4,30.4,0,0,1-8.962,21.635A30.392,30.392,0,0,1-6005.4-3674.808Zm-.182-28.717h0l10.754,14.894a1.558,1.558,0,0,0,1.35.63,1.569,1.569,0,0,0,1.215-.5,1.75,1.75,0,0,0,.45-1.215,1.856,1.856,0,0,0-.406-1.125L-6003.157-3706l10.62-14.4a1.768,1.768,0,0,0,.314-1.035,1.759,1.759,0,0,0-.45-1.192,1.482,1.482,0,0,0-1.169-.518,1.632,1.632,0,0,0-1.35.63l-10.35,14.13-10.216-14.13a1.557,1.557,0,0,0-1.35-.63,1.519,1.519,0,0,0-1.171.5,1.693,1.693,0,0,0-.449,1.169,2.1,2.1,0,0,0,.359,1.08l10.395,14.446-11.114,15.12a1.978,1.978,0,0,0-.4,1.215,1.607,1.607,0,0,0,.45,1.148,1.6,1.6,0,0,0,1.215.473,1.553,1.553,0,0,0,1.259-.541l10.98-14.984Z" transform="translate(6036 3736)" fill="#ea2027"/>
  </g>
</svg>
