<svg xmlns="http://www.w3.org/2000/svg" width="264.82" height="265" viewBox="0 0 264.82 265">
  <g id="Section_Icon" data-name="Section Icon" transform="translate(-0.175 0)">
    <path id="Path_388" data-name="Path 388" d="M4.313,122.324a4.138,4.138,0,0,0,4.138-4.138V96.42H126.382l16.575,63.951a4.138,4.138,0,1,0,8.011-2.076L133.589,91.244a4.138,4.138,0,0,0-4.005-3.1h-20.4l-7.793-31.587a4.138,4.138,0,1,0-8.035,1.983l7.3,29.6h-40.5V47.151a21.157,21.157,0,0,0-42.314,0V88.144h-9.4V8.276H80.959l3.387,13.73a4.138,4.138,0,1,0,8.035-1.982L88.217,3.147A4.138,4.138,0,0,0,84.2,0H4.313A4.138,4.138,0,0,0,.175,4.138V118.186a4.138,4.138,0,0,0,4.138,4.138ZM26.124,47.151a12.881,12.881,0,0,1,25.762,0V88.144H26.124Z" transform="translate(0)" fill="#d22b2b"/>
    <path id="Path_389" data-name="Path 389" d="M173.027,61.946A4.138,4.138,0,0,0,170,66.954l1.8,7.306a4.138,4.138,0,0,0,8.035-1.982l-1.8-7.306A4.139,4.139,0,0,0,173.027,61.946Z" transform="translate(-81.929 -29.847)" fill="#d22b2b"/>
    <path id="Path_390" data-name="Path 390" d="M260.857,230.848h-105a4.138,4.138,0,1,0,0,8.276H256.719v58.8h-33.1V272.761a9.483,9.483,0,0,1,18.966,0v13.965a4.138,4.138,0,1,0,8.276,0V272.761a17.759,17.759,0,0,0-35.517,0v25.167h-8.276V272.744a17.759,17.759,0,0,0-35.517,0v15.089l-2.594-10.1a4.138,4.138,0,0,0-4.008-3.109H112.353V263.434a4.138,4.138,0,0,0-8.276,0v11.189H78.315V233.63a12.881,12.881,0,0,1,25.762,0v10.495a4.138,4.138,0,1,0,8.276,0V233.63a21.157,21.157,0,0,0-42.314,0v40.993H60.161V233.63a21.157,21.157,0,0,0-42.314,0v40.993h-9.4V236.809a4.138,4.138,0,0,0-8.276,0V363.439a4.138,4.138,0,0,0,4.138,4.138L260.74,367.4a4.138,4.138,0,0,0,4.138-4.13l.022-11.551a4.138,4.138,0,1,0-8.276-.016l-.014,7.421h-5.752V334.211a17.759,17.759,0,1,0-35.517,0V359.12h-8.276V334.211a17.772,17.772,0,0,0-27.429-14.884l-3.37-13.123h80.445l-.054,28.6a4.138,4.138,0,0,0,8.276.016l.062-99.832a4.138,4.138,0,0,0-4.138-4.138Zm-81.033,41.9a9.483,9.483,0,0,1,18.966,0v24.909H179.824ZM26.124,233.63a12.881,12.881,0,0,1,25.762,0v40.993H26.124ZM104.077,359.3H78.315V318.308a12.881,12.881,0,0,1,25.762,0Zm52.192,0H130.507V318.308a12.881,12.881,0,0,1,25.762,0Zm8.276,0V318.308a21.157,21.157,0,0,0-42.314,0V359.3h-9.878V318.308a21.157,21.157,0,0,0-42.314,0V359.3H60.162V318.308a21.157,21.157,0,0,0-42.314,0v29.95a4.138,4.138,0,0,0,8.276,0v-29.95a12.881,12.881,0,0,1,25.762,0V359.3H8.451V282.9H161.736l19.621,76.4Zm59.071-25.09a9.483,9.483,0,1,1,18.966,0V359.12H223.616Zm-24.827,0V359.12h-8.935l-7.926-30.863A9.491,9.491,0,0,1,198.79,334.211Z" transform="translate(0 -102.577)" fill="#d22b2b"/>
  </g>
</svg>
